<svg width="204" height="116" viewBox="0 0 204 116" fill="none" xmlns="http://www.w3.org/2000/svg">
<path d="M203.917 56.5431C203.874 55.011 203.798 53.4898 203.57 51.9686C203.027 48.3176 201.995 44.8079 200.454 41.4504C198.076 36.2456 194.732 31.7362 190.443 27.9332C187.903 25.673 185.112 23.7715 182.094 22.2068C179.608 20.9246 177.002 19.9141 174.299 19.197C172.355 18.6863 170.401 18.2299 168.381 18.1538C167.654 18.1212 166.926 18.1321 166.199 18.0234H37.7144C37.5516 18.1212 37.3779 18.056 37.2041 18.0669C36.2378 18.1212 35.2607 18.0995 34.2944 18.2408C30.0926 18.8601 26.0755 20.0771 22.2863 21.9786C18.0085 24.1192 14.2194 26.9118 10.9188 30.3889C8.15017 33.3118 5.87015 36.5607 4.06785 40.1464C2.79755 42.6782 1.80954 45.3186 1.12553 48.0677C0.680386 49.8714 0.267811 51.6969 0.19181 53.5767C0.159238 54.3373 0.170096 55.098 0.0615234 55.8477V59.4878C0.170096 59.8029 0.0832379 60.1289 0.104952 60.4548C0.148381 62.1391 0.246096 63.8233 0.582671 65.4858C1.42954 69.7669 2.91698 73.7982 5.05585 77.6013C7.35759 81.676 10.2782 85.2291 13.8068 88.2825C16.7817 90.8577 20.0606 92.9548 23.6652 94.563C28.5944 96.7579 33.7407 97.9531 39.1476 97.9531C79.0154 97.9423 118.894 97.9531 158.762 97.9423C161.074 97.9423 163.387 97.964 165.7 97.9097C167.643 97.8553 169.576 97.7141 171.497 97.3338C175.775 96.4862 179.825 95.0193 183.603 92.8462C187.349 90.6947 190.704 88.0543 193.603 84.8271C194.927 83.3493 196.154 81.8064 197.262 80.1656C199.943 76.1452 201.843 71.7771 202.951 67.0722C203.374 65.2902 203.711 63.4756 203.819 61.6501C203.928 59.955 203.971 58.2491 203.917 56.5431ZM196.827 61.5197C196.198 67.17 194.265 72.3313 190.964 76.971C187.284 82.1432 182.528 86.0006 176.687 88.4889C174.071 89.6081 171.345 90.3579 168.512 90.749C166.84 90.9772 165.157 91.0967 163.474 91.0967C142.954 91.1076 122.444 91.0967 101.924 91.0967C81.6103 91.0967 61.3072 91.0859 40.9933 91.1076C36.151 91.1076 31.4824 90.347 27.0201 88.4129C22.3189 86.3809 18.3125 83.4145 14.9577 79.5571C12.1348 76.3082 10.0176 72.6355 8.62789 68.5608C7.82445 66.1921 7.29245 63.769 7.05359 61.2807C6.90159 59.6942 6.82558 58.1078 6.90158 56.5105C7.31416 48.5784 10.1479 41.6351 15.4788 35.7566C20.3428 30.3997 26.336 26.9335 33.4584 25.4775C35.7167 25.0211 37.9859 24.8146 40.2767 24.8146C81.5343 24.8146 122.792 24.8038 164.049 24.8364C172.398 24.8472 179.705 27.7484 185.937 33.3118C190.78 37.6364 194.08 42.939 195.828 49.1978C196.469 51.5013 196.816 53.8375 196.958 56.228C197.077 57.9992 197.023 59.7703 196.827 61.5197Z" fill="#CDCDCD"/>
<path d="M132.01 37.4102C131.977 38.6597 131.988 39.8985 131.999 41.148C131.999 41.398 131.934 41.4958 131.673 41.5283C130.664 41.6913 129.643 41.8543 128.709 42.3324C127.461 42.9735 126.853 44.0058 126.712 45.3749C126.646 46.0486 126.657 46.7114 126.657 47.3742C126.657 54.8174 126.657 62.2496 126.657 69.6928C126.657 70.323 126.701 70.9641 126.853 71.5835C127.244 73.1156 128.373 74.1044 129.969 74.3434C130.512 74.4303 131.044 74.4521 131.587 74.4303C131.804 74.4303 131.891 74.4738 131.891 74.7237C131.88 76.1254 131.891 77.538 131.901 78.9397C131.901 79.2331 131.793 79.2765 131.532 79.2765C130.816 79.2657 130.099 79.2657 129.383 79.2657C123.15 79.2657 116.929 79.2548 110.697 79.2765C110.187 79.2765 110.1 79.1353 110.111 78.6681C110.143 77.4728 110.143 76.2775 110.111 75.0714C110.1 74.6803 110.23 74.5933 110.589 74.6151C111.294 74.6694 111.989 74.5825 112.662 74.376C114.389 73.8327 115.333 72.6157 115.67 70.8881C115.8 70.2252 115.833 69.5624 115.833 68.8996C115.844 62.8147 115.844 56.7298 115.833 50.6557C115.833 50.1016 115.8 49.5474 115.768 48.9824C115.757 48.8628 115.724 48.7325 115.681 48.6129C115.54 48.1783 115.355 48.1348 115.051 48.4608C114.649 48.9063 114.41 49.4387 114.237 50.0038C111.522 58.903 108.808 67.8021 106.094 76.7013C105.877 77.4293 105.638 78.1465 105.431 78.8854C105.355 79.1679 105.225 79.2548 104.943 79.2548C102.934 79.2439 100.915 79.2331 98.9062 79.2657C98.5154 79.2657 98.3525 79.157 98.2331 78.7876C96.7999 74.0826 95.3342 69.356 93.8576 64.6293C92.3268 59.7288 90.7959 54.8391 89.265 49.9386C89.1022 49.4387 88.885 48.9606 88.5701 48.5369C88.4616 48.3956 88.3421 48.2109 88.1576 48.2435C87.9513 48.2761 87.8753 48.4825 87.8319 48.6781C87.7124 49.178 87.6473 49.6778 87.6473 50.1885C87.6473 56.6102 87.6147 63.0211 87.6581 69.4429C87.6799 72.0724 89.4279 74.5607 92.8045 74.6368C93.217 74.6477 93.3365 74.7237 93.3256 75.1584C93.293 76.4079 93.3039 77.6467 93.3256 78.8962C93.3256 79.1787 93.2713 79.2765 92.9565 79.2765C87.6907 79.2657 82.4141 79.2657 77.1483 79.2765C76.8335 79.2765 76.79 79.1679 76.79 78.8962C76.8009 77.6032 76.8118 76.3101 76.79 75.0171C76.79 74.7129 76.8769 74.6585 77.1592 74.6368C80.4815 74.3977 81.7409 71.7682 81.7409 69.4646C81.7627 61.652 81.7518 53.8503 81.7518 46.0377C81.7518 43.4082 80.0472 41.7022 77.4089 41.7239C76.9312 41.7239 76.8443 41.5827 76.8552 41.148C76.8878 39.8985 76.8769 38.6597 76.8552 37.4102C76.8552 37.0951 76.9203 36.9755 77.2678 36.9755C83.337 36.9864 89.4062 36.9864 95.4645 36.9755C95.7794 36.9755 95.8879 37.0842 95.9748 37.3776C98.2114 44.9728 100.448 52.5573 102.695 60.1525C102.999 61.1957 103.314 62.2497 103.629 63.2928C103.673 63.4232 103.716 63.5427 103.814 63.8143C104.129 62.8147 104.4 61.9454 104.671 61.087C107.136 53.2201 109.601 45.3423 112.044 37.4645C112.174 37.0407 112.369 36.9212 112.804 36.9212C119.014 36.9321 125.224 36.9321 131.435 36.9212C131.858 36.8886 132.021 36.9538 132.01 37.4102Z" fill="#CDCDCD"/>
<path d="M70.4491 52.7841C69.8085 49.5569 68.4296 46.6883 66.4102 44.1022C64.9227 42.1898 63.2399 40.4838 61.1118 39.2777C58.0718 37.5609 54.7278 36.9959 51.3077 36.9089C47.3557 36.8112 43.3928 36.8872 39.4299 36.8872V36.8546C35.4019 36.8546 31.3847 36.8655 27.3567 36.8438C26.955 36.8438 26.8572 36.9524 26.8681 37.3436C26.9007 38.5606 26.9007 39.7667 26.8681 40.9837C26.8572 41.4726 26.9441 41.7334 27.487 41.7225C27.7367 41.7225 27.9755 41.8203 28.2253 41.8855C29.6584 42.2441 30.831 42.9069 31.2653 44.439C31.4499 45.1019 31.5584 45.7755 31.5584 46.4601C31.5693 53.8054 31.5693 61.1508 31.5693 68.4853C31.5693 69.0721 31.5476 69.6588 31.4933 70.2456C31.211 72.8534 29.5933 74.3855 26.9984 74.429C26.6727 74.429 26.5641 74.505 26.575 74.8419C26.5967 76.1566 26.6075 77.4606 26.575 78.7645C26.5641 79.1882 26.7052 79.2426 27.0852 79.2426C33.5996 79.2317 40.1139 79.2426 46.6283 79.2317C48.398 79.2317 50.1677 79.2643 51.9375 79.1448C54.1089 78.9926 56.2586 78.6884 58.3541 78.069C63.5439 76.5152 67.2027 73.2772 69.2005 68.2137C70.2971 65.432 70.7313 62.5199 70.8616 59.5644C70.9594 57.3043 70.9051 55.0333 70.4491 52.7841ZM59.429 59.271C59.2552 62.4221 58.7124 65.508 57.5398 68.4527C56.8232 70.2565 55.7701 71.8211 54.2392 73.049C53.3923 73.7227 52.426 74.0378 51.3729 74.0487C49.5272 74.0813 47.6706 74.0704 45.814 74.0487C44.294 74.0269 43.3277 73.1577 43.0128 71.5712C42.8825 70.9301 42.8174 70.289 42.8174 69.6262C42.8174 65.6384 42.8174 61.6398 42.8174 57.652H42.8065C42.8065 53.6316 42.8065 49.6112 42.8065 45.5908C42.8065 44.8628 42.9151 44.1565 43.306 43.5372C43.7294 42.8743 44.37 42.494 45.13 42.4832C46.6391 42.4723 48.1591 42.3528 49.6683 42.5484C52.9255 42.9721 55.4226 44.5477 57.0512 47.4163C58.365 49.7307 59.0381 52.2408 59.2878 54.8812C59.4181 56.3481 59.505 57.8041 59.429 59.271Z" fill="#CDCDCD"/>
<path d="M170.14 74.3099C168.479 76.1571 166.59 77.7327 164.255 78.6998C162.779 79.3083 161.237 79.656 159.663 79.8407C158.447 79.9819 157.22 80.0471 155.993 80.0145C153.181 79.9385 150.532 79.3191 148.143 77.7544C147.6 77.3959 147.046 77.0373 146.352 77.0481C145.776 77.0481 145.461 77.3198 145.418 77.8957C145.396 78.1782 145.364 78.4933 145.45 78.7541C145.624 79.2431 145.407 79.2648 145.016 79.2539C143.887 79.2322 142.747 79.2431 141.618 79.2539C141.379 79.2539 141.26 79.2105 141.173 78.9497C139.631 74.0709 138.078 69.203 136.526 64.335C136.45 64.096 136.482 63.9656 136.754 63.8787C137.97 63.4657 139.175 63.0202 140.38 62.6073C140.489 62.5639 140.662 62.4443 140.728 62.7377C141.184 65.1174 142.693 66.8559 144.321 68.5184C146.645 70.9089 149.413 72.5497 152.627 73.4407C154.332 73.9079 156.047 73.9188 157.773 73.6688C159.283 73.4407 160.781 73.169 162.192 72.5605C162.941 72.2345 163.647 71.8434 164.212 71.2458C165.135 70.2678 165.33 69.0508 164.711 67.8556C163.832 66.1605 162.344 65.1391 160.694 64.3242C159.076 63.5309 157.317 63.2702 155.591 62.879C152.215 62.1075 148.784 61.5751 145.472 60.4885C142.237 59.4345 139.74 57.5221 138.274 54.3818C137.47 52.665 137.232 50.8722 137.427 49.0032C137.59 47.3842 137.894 45.7978 138.545 44.2983C139.837 41.3427 141.987 39.1696 144.745 37.5614C146.449 36.5617 148.284 35.9206 150.239 35.6816C151.335 35.5512 152.443 35.6164 153.539 35.6707C154.875 35.7359 156.199 35.8446 157.502 36.1814C158.989 36.5726 160.271 37.3658 161.519 38.2134C161.867 38.4415 162.203 38.6806 162.605 38.811C163.311 39.05 163.712 38.7241 163.658 37.9743C163.647 37.8113 163.625 37.6592 163.604 37.5071C163.528 36.8986 163.528 36.8986 164.125 36.8986C165.167 36.8986 166.199 36.9094 167.241 36.8877C167.534 36.8768 167.654 36.9855 167.74 37.2463C169.076 41.0602 170.422 44.8633 171.758 48.6664C171.801 48.7968 171.931 48.938 171.671 49.0249C170.086 49.5574 168.5 50.1115 166.904 50.6657C166.818 47.4385 164.863 45.4935 162.399 43.9288C160.509 42.7227 158.457 41.8208 156.275 41.3971C154.039 40.9516 151.78 41.0494 149.663 42.1034C147.394 43.2443 146.037 46.7105 149.153 49.0467C150.836 50.3071 152.779 50.9808 154.766 51.5567C156.796 52.1326 158.892 52.3716 160.955 52.8063C163.929 53.4365 166.763 54.4144 169.239 56.2399C171.54 57.935 172.887 60.2494 173.484 62.9877C174.418 67.3449 173.039 71.0719 170.14 74.3099Z" fill="#CDCDCD"/>
<path d="M175.97 30.9548C172.811 31.0852 170.292 33.8017 170.389 37.018C170.476 40.1148 173.104 42.7009 176.274 42.6791C179.564 42.6574 182.126 40.0496 182.115 36.7463C182.115 33.7799 179.629 30.8027 175.97 30.9548ZM176.274 41.6903C173.581 41.6903 171.388 39.4954 171.388 36.8115C171.388 34.1385 173.614 31.9327 176.285 31.9327C178.902 31.9327 181.16 34.1929 181.127 36.8224C181.084 39.7345 178.706 41.7121 176.274 41.6903Z" fill="#CDCDCD"/>
<path d="M178.479 38.1343C178.457 37.5367 178.251 37.0803 177.523 36.7978C178.576 36.4284 178.761 35.7004 178.685 34.8094C178.609 34.0162 178.272 33.5924 177.48 33.4403C176.372 33.2229 175.254 33.3859 174.136 33.3425C173.94 33.3316 173.951 33.462 173.951 33.5924C173.951 35.733 173.951 37.8736 173.951 40.0033C173.951 40.2206 174.038 40.2749 174.234 40.2641C174.375 40.2532 174.527 40.2423 174.668 40.2641C174.972 40.3075 175.037 40.1771 175.037 39.8946C175.015 39.1123 175.026 38.3299 175.037 37.5476C175.037 37.4063 174.983 37.2433 175.232 37.189C176.59 36.9282 177.252 37.4063 177.404 38.7863C177.415 38.895 177.404 39.0145 177.426 39.1231C177.599 40.2967 177.599 40.2967 178.75 40.2315C178.772 40.2315 178.794 40.1989 178.815 40.188C178.696 39.5034 178.5 38.8298 178.479 38.1343ZM177.469 35.2875C177.447 35.7438 177.176 36.0155 176.709 36.1241C176.242 36.2328 175.764 36.1893 175.287 36.2111C175.07 36.2219 175.015 36.1133 175.026 35.9286C175.037 35.5483 175.048 35.1679 175.026 34.7876C175.004 34.4291 175.091 34.2443 175.482 34.3095C175.623 34.3313 175.764 34.3095 175.949 34.3095C176.21 34.3313 176.514 34.2769 176.807 34.3747C177.252 34.5269 177.491 34.842 177.469 35.2875Z" fill="#CDCDCD"/>
</svg>
