<svg width="532" height="116" viewBox="0 0 532 116" fill="none" xmlns="http://www.w3.org/2000/svg">
<g clip-path="url(#clip0_1309_7418)">
<path d="M99.1508 43.6555C98.9817 43.0459 99.3198 42.6056 99.9453 42.6056H103.986C104.341 42.6056 104.696 42.9104 104.78 43.2152L109.345 60.758H109.514L116.496 42.6395C116.58 42.3686 116.8 42.1484 117.24 42.1484H118.034C118.474 42.1484 118.694 42.3686 118.778 42.6395L125.811 60.758H125.98L130.46 43.2152C130.544 42.9104 130.899 42.6056 131.254 42.6056H135.295C135.903 42.6056 136.258 43.0459 136.089 43.6555L127.789 73.2039C127.704 73.5595 127.349 73.8135 126.994 73.8135H126.284C125.895 73.8135 125.625 73.5934 125.54 73.3225L117.679 53.409H117.459L109.683 73.3225C109.548 73.5934 109.379 73.8135 108.939 73.8135H108.229C107.874 73.8135 107.519 73.5426 107.434 73.2039L99.1508 43.6555Z" fill="#CDCDCD"/>
<path d="M163.477 42.168C172.251 42.168 179.283 49.2461 179.283 58.0513C179.283 66.8566 172.251 73.8331 163.477 73.8331C154.703 73.8331 147.721 66.8397 147.721 58.0513C147.721 49.263 154.703 42.168 163.477 42.168ZM163.477 68.1096C169.005 68.1096 173.569 63.5715 173.569 58.0344C173.569 52.4972 169.005 47.8745 163.477 47.8745C157.949 47.8745 153.418 52.4972 153.418 58.0344C153.418 63.5885 157.949 68.1096 163.477 68.1096Z" fill="#CDCDCD"/>
<path d="M193.839 43.4352C193.839 42.9949 194.194 42.6055 194.667 42.6055H207.228C212.503 42.6055 216.797 46.8218 216.797 52.0542C216.797 56.1012 214.125 59.4032 210.305 60.9441L216.323 72.1201C216.628 72.6958 216.323 73.39 215.579 73.39H210.964C210.575 73.39 210.356 73.1699 210.254 73.0006L204.422 61.3505H199.553V72.5603C199.553 73.0006 199.164 73.39 198.725 73.39H194.684C194.194 73.39 193.856 73.0006 193.856 72.5603V43.4352H193.839ZM206.738 56.6262C209.071 56.6262 211.083 54.6111 211.083 52.1389C211.083 49.8021 209.071 47.8717 206.738 47.8717H199.587V56.6262H206.738Z" fill="#CDCDCD"/>
<path d="M231.859 43.6566C231.859 43.0809 232.298 42.6068 232.907 42.6068H236.778C237.353 42.6068 237.826 43.0978 237.826 43.6566V55.5268L248.883 43.0301C249.052 42.81 249.322 42.5898 249.711 42.5898H254.106C254.935 42.5898 255.374 43.5212 254.816 44.1816L243.354 57.1185L255.645 71.8504C256.084 72.4262 255.729 73.3913 254.85 73.3913H250.066C249.626 73.3913 249.356 73.222 249.271 73.0866L237.809 58.9304V72.3415C237.809 72.9172 237.319 73.3913 236.761 73.3913H232.89C232.281 73.3913 231.842 72.9003 231.842 72.3415V43.6566H231.859Z" fill="#CDCDCD"/>
<path d="M269.271 43.4352C269.271 42.9949 269.627 42.6055 270.1 42.6055H280.412C285.805 42.6055 290.251 47.0081 290.251 52.3251C290.251 57.6422 285.822 62.2141 280.463 62.2141H274.969V72.5434C274.969 72.9836 274.58 73.3731 274.14 73.3731H270.1C269.61 73.3731 269.271 72.9836 269.271 72.5434V43.4352ZM280.074 56.8463C282.525 56.8463 284.605 54.8651 284.605 52.2743C284.605 49.8529 282.542 48.0072 280.074 48.0072H274.986V56.8463H280.074Z" fill="#CDCDCD"/>
<path d="M298.349 72.2387L312.009 42.6395C312.144 42.3686 312.364 42.1484 312.752 42.1484H313.192C313.631 42.1484 313.8 42.3686 313.936 42.6395L327.46 72.2387C327.731 72.8145 327.376 73.3902 326.716 73.3902H322.896C322.236 73.3902 321.932 73.1193 321.628 72.5097L319.481 67.7684H306.345L304.198 72.5097C304.029 72.9499 303.623 73.3902 302.93 73.3902H299.11C298.433 73.3902 298.095 72.8145 298.349 72.2387ZM317.317 62.8747L312.921 53.2058H312.786L308.475 62.8747H317.317Z" fill="#CDCDCD"/>
<path d="M340.24 43.4352C340.24 42.9949 340.595 42.6055 341.069 42.6055H353.629C358.904 42.6055 363.198 46.8218 363.198 52.0542C363.198 56.1012 360.527 59.4032 356.706 60.9441L362.725 72.1201C363.029 72.6958 362.725 73.39 361.981 73.39H357.366C356.977 73.39 356.757 73.1699 356.656 73.0006L350.823 61.3505H345.954V72.5603C345.954 73.0006 345.565 73.39 345.126 73.39H341.086C340.595 73.39 340.257 73.0006 340.257 72.5603V43.4352H340.24ZM353.156 56.6262C355.489 56.6262 357.501 54.6111 357.501 52.1389C357.501 49.8021 355.489 47.8717 353.156 47.8717H346.005V56.6262H353.156Z" fill="#CDCDCD"/>
<path d="M374.288 72.2387L387.948 42.6395C388.083 42.3686 388.303 42.1484 388.692 42.1484H389.131C389.571 42.1484 389.74 42.3686 389.875 42.6395L403.4 72.2387C403.67 72.8145 403.315 73.3902 402.656 73.3902H398.835C398.176 73.3902 397.872 73.1193 397.567 72.5097L395.42 67.7684H382.285L380.138 72.5097C379.969 72.9499 379.563 73.3902 378.87 73.3902H375.049C374.373 73.3902 374.018 72.8145 374.288 72.2387ZM393.239 62.8747L388.844 53.2058H388.709L384.415 62.8747H393.239Z" fill="#CDCDCD"/>
<path d="M416.18 43.4352C416.18 42.9949 416.535 42.6055 416.974 42.6055H427.371C435.841 42.6055 442.789 49.5142 442.789 57.947C442.789 66.3797 435.858 73.39 427.371 73.39H416.974C416.535 73.39 416.18 73.0006 416.18 72.5603V43.4352ZM426.847 68.0222C432.561 68.0222 436.72 63.7212 436.72 57.947C436.72 52.1727 432.544 47.9225 426.847 47.9225H421.843V68.0222H426.847Z" fill="#CDCDCD"/>
<path d="M457.362 43.4352C457.362 42.9949 457.751 42.6055 458.191 42.6055H462.282C462.721 42.6055 463.11 42.9949 463.11 43.4352V72.5434C463.11 72.9836 462.721 73.3731 462.282 73.3731H458.191C457.751 73.3731 457.362 72.9836 457.362 72.5434V43.4352Z" fill="#CDCDCD"/>
<path d="M478.088 69.0722L479.661 66.346C480.016 65.7364 480.76 65.7364 481.148 66.0412C481.368 66.1767 484.918 68.7674 487.775 68.7674C490.058 68.7674 491.765 67.2773 491.765 65.3808C491.765 63.1456 489.872 61.6047 486.186 60.0976C482.061 58.4213 477.936 55.7966 477.936 50.5981C477.936 46.6865 480.827 42.1484 487.809 42.1484C492.289 42.1484 495.704 44.4344 496.583 45.0948C497.023 45.3657 497.158 46.1108 496.854 46.5511L495.18 49.0572C494.825 49.5821 494.166 49.9377 493.642 49.5821C493.287 49.362 489.956 47.1607 487.539 47.1607C485.121 47.1607 483.667 48.8371 483.667 50.2425C483.667 52.3084 485.29 53.7138 488.84 55.1701C493.101 56.8803 498.02 59.4372 498.02 65.1099C498.02 69.631 494.115 73.8135 487.927 73.8135C482.399 73.8135 479.154 71.2228 478.274 70.3761C477.919 70.0036 477.7 69.7834 478.088 69.0722Z" fill="#CDCDCD"/>
<path d="M512.474 43.4352C512.474 42.9949 512.829 42.6055 513.302 42.6055H531.171C531.661 42.6055 531.999 42.9949 531.999 43.4352V47.042C531.999 47.4822 531.644 47.8717 531.171 47.8717H518.171V55.0852H529.024C529.464 55.0852 529.853 55.4747 529.853 55.915V59.5725C529.853 60.0636 529.464 60.4023 529.024 60.4023H518.171V68.0899H531.171C531.661 68.0899 531.999 68.4794 531.999 68.9197V72.5264C531.999 72.9667 531.644 73.3562 531.171 73.3562H513.302C512.812 73.3562 512.474 72.9667 512.474 72.5264V43.4352Z" fill="#CDCDCD"/>
<path d="M22.4334 23.9643C19.4918 25.048 16.7362 26.4026 14.2342 28.2992C13.8116 28.6209 13.7778 28.8918 13.9806 29.3321C14.3695 30.1449 14.6907 30.9915 15.1133 31.7874C17.497 36.1731 19.7623 40.6265 22.332 44.8937C26.2372 51.3791 30.8524 57.3565 36.11 62.809C36.6848 63.4186 39.1868 66.0094 39.694 66.5851C39.3897 66.7037 49.2287 74.7808 53.6072 78.4045C46.1011 84.3481 37.8005 86.8881 28.2658 83.9586C28.2658 83.6199 28.2151 83.2982 28.232 82.9765C28.3842 81.0969 28.587 79.2173 28.7223 77.3377C28.8575 75.492 28.942 73.6293 29.0773 71.7667C29.1618 70.6152 29.2971 69.4807 29.3309 68.3293C29.3309 67.9906 29.128 67.5165 28.8575 67.3133C27.4882 66.2465 26.0343 65.2474 24.648 64.1976C24.1747 63.842 23.7859 63.7742 23.2449 64.079C20.2864 65.7554 17.311 67.4149 14.3357 69.0743C13.203 69.7008 12.0872 70.3443 10.8362 71.0386C10.2107 69.4638 9.60212 68.0075 9.04423 66.5343C7.99609 63.825 7.35368 60.9802 7.08319 58.1016C6.71127 54.3424 7.28606 50.6679 8.65541 47.1627C8.95971 46.4008 10.0924 44.7921 10.9038 43.6576L6.66055 35.8683C5.8829 36.8504 5.08834 37.8325 4.42902 38.8824C1.75795 43.2173 0.574564 48.0602 0.13502 53.0724C-0.203091 57.0517 0.0673979 61.0141 0.946485 64.9257C1.57199 67.7366 2.46798 70.4459 3.7528 73.0198C4.93619 75.3735 6.37316 77.5579 8.24967 79.4205C8.45254 79.6068 8.92589 79.7592 9.12876 79.6576C12.2563 78.1844 15.35 76.6604 18.4775 75.1703C19.458 74.6961 20.4555 74.2728 21.3176 73.8833C21.4022 76.0508 21.5374 78.1674 21.5374 80.2672C21.5374 83.3151 21.4698 86.3462 21.4022 89.3942C21.4022 89.936 21.6219 90.1731 22.1291 90.2916C24.0056 90.7319 25.899 91.1552 27.7587 91.6463C30.5143 92.3575 33.3206 92.4591 36.1269 92.5268C38.7303 92.5776 41.3169 92.2559 43.8189 91.5108C45.8476 90.9182 47.9269 90.3594 49.8542 89.5296C53.4212 87.9718 56.5995 85.7705 59.4734 83.1627C59.8622 82.8241 60.1327 82.7902 60.5385 83.0781C62.5671 84.5343 72.7443 90.6642 74.5531 91.5278C76.3959 92.4083 78.2724 93.2041 80.1658 93.9661C80.4363 94.0677 81.0111 93.9661 81.1294 93.7799C82.1775 92.0188 83.1412 90.2239 84.1386 88.429C84.3753 88.0056 84.2231 87.8194 83.8343 87.6162C81.3999 86.397 78.9655 85.1778 76.548 83.9078C69.0927 79.9624 62.0431 75.3396 55.433 70.1072C48.451 64.5701 42.1114 58.3556 36.4312 51.4807C32.2217 46.3838 28.4349 40.9821 25.02 35.3264C24.3775 34.2596 23.7689 33.159 23.1434 32.1091C23.2787 31.9737 23.3294 31.9059 23.397 31.8721C26.0343 30.5682 28.8237 29.7046 31.6976 29.2305C35.5014 28.604 39.3051 28.6548 43.092 29.5353C47.2 30.4835 50.9023 32.2446 54.1313 34.9539C60.1835 40.0508 63.1419 46.7225 63.7674 54.5118C64.0548 58.0508 63.8012 61.5729 63.0743 65.0442C62.9729 65.5353 63.0405 65.8401 63.48 66.1618C65.0184 67.2963 66.523 68.4647 68.0276 69.6331C68.4841 69.9887 68.8222 70.0056 68.9574 69.3452C69.6336 66.0433 70.6142 62.7582 70.9354 59.4224C71.4594 54.0884 71.1382 48.7714 69.2279 43.6406C67.8078 39.8307 65.7792 36.4102 63.0236 33.4638C59.1184 29.2982 54.4018 26.3688 49.0089 24.4553C45.1713 23.0329 41.2155 22.1524 37.1412 22.0339C36.4481 22 35.7381 22 35.0449 22C30.7847 22 26.5415 22.4572 22.4334 23.9643Z" fill="#CDCDCD"/>
</g>
<defs>
<clipPath id="clip0_1309_7418">
<rect width="532" height="116" fill="white"/>
</clipPath>
</defs>
</svg>
