<svg width="512" height="512" viewBox="0 0 512 512" fill="none" xmlns="http://www.w3.org/2000/svg">
<g clip-path="url(#clip0_1314_7665)">
<path d="M356.844 61.205V0.5H131.887C118.102 0.5 106.887 11.715 106.887 25.5V61.205H356.844Z" fill="white"/>
<path d="M386.844 0.5H431.849V61.205H386.844V0.5Z" fill="white"/>
<path d="M461.848 61.205H511.851V25.5C511.851 11.715 500.636 0.5 486.851 0.5H461.848V61.205Z" fill="white"/>
<path d="M107.035 91.2031V288.105C172.286 293.287 223.797 348.039 223.797 414.599C223.797 420.315 223.41 425.942 222.674 431.46H486.999C500.784 431.46 511.999 420.245 511.999 406.46V91.2031H107.035ZM328.773 171.521C331.586 168.702 335.406 167.118 339.389 167.118H366.762C383.578 167.118 398.201 174.29 407.936 187.313C416.346 198.564 420.791 213.478 420.791 230.442C420.791 266.474 398.516 293.015 367.824 293.551C360.007 293.688 340.469 293.763 339.64 293.766C339.621 293.766 339.602 293.766 339.583 293.766C335.624 293.766 331.826 292.202 329.016 289.412C326.192 286.609 324.598 282.799 324.583 278.82C324.582 278.469 324.458 243.632 324.458 230.335C324.458 219.316 324.388 182.145 324.388 182.145C324.382 178.164 325.959 174.341 328.773 171.521ZM207.605 294.258C199.863 291.31 195.978 282.643 198.926 274.902L236.324 176.709C236.367 176.595 236.412 176.482 236.458 176.369C239.12 169.861 245.383 165.652 252.414 165.645H252.431C259.455 165.645 265.718 169.84 268.391 176.337C268.447 176.473 268.5 176.61 268.552 176.747L305.611 274.944C308.536 282.695 304.624 291.349 296.873 294.274C295.13 294.932 293.339 295.244 291.58 295.244C285.518 295.244 279.81 291.543 277.543 285.536L273.853 275.758H230.702L226.962 285.579C224.013 293.321 215.347 297.208 207.605 294.258Z" fill="white"/>
<path d="M193.798 414.602C193.798 361.172 150.329 317.703 96.899 317.703C43.469 317.703 0 361.172 0 414.602C0 468.033 43.469 511.501 96.899 511.501C150.33 511.501 193.798 468.033 193.798 414.602ZM136.438 441.59C134.011 456.027 124.238 467.593 111.312 472.744V475.243C111.312 483.527 104.596 490.243 96.312 490.243C88.028 490.243 81.312 483.527 81.312 475.243V474.491C75.627 473.291 70.254 470.964 63.598 466.61C56.665 462.075 54.722 452.778 59.257 445.846C63.792 438.914 73.088 436.969 80.021 441.505C86.025 445.433 87.808 445.712 96.212 445.653C103.421 445.605 106.293 439.949 106.854 436.615C107.887 430.47 103.074 428.769 101.493 428.21C90.441 424.303 79.092 419.808 70.959 413.429C61.98 406.387 57.846 394.356 60.168 382.032C62.451 369.917 70.433 360.073 81.312 355.632V353.96C81.312 345.676 88.028 338.96 96.312 338.96C104.596 338.96 111.312 345.676 111.312 353.96V354.759C117.28 356.73 121.476 359.509 123.357 360.915C129.992 365.875 131.35 375.275 126.39 381.91C121.431 388.545 112.031 389.904 105.395 384.943C103.843 383.783 99.527 381.299 92.993 383.265C91.351 383.76 90.486 385.15 90.048 386.229C89.38 387.877 89.481 389.415 89.698 389.997C94.535 393.675 103.865 397.228 111.491 399.924C129.529 406.303 139.555 423.046 136.438 441.59Z" fill="white"/>
<path d="M242.129 245.76H262.532L252.377 218.852L242.129 245.76Z" fill="white"/>
<path d="M354.46 230.339C354.46 237.905 354.5 252.5 354.535 263.69C359.398 263.656 364.305 263.612 367.301 263.56C378.994 263.355 390.792 253.037 390.792 230.446C390.792 222.629 389.06 197.121 366.763 197.121H354.416C354.437 208.762 354.46 223.947 354.46 230.339Z" fill="white"/>
</g>
<defs>
<clipPath id="clip0_1314_7665">
<rect width="512" height="512" fill="white"/>
</clipPath>
</defs>
</svg>
