<svg width="34" height="15" viewBox="0 0 34 15" fill="none" xmlns="http://www.w3.org/2000/svg">
<path d="M1 6.36377C0.447715 6.36377 4.48928e-08 6.81148 0 7.36377C-4.48928e-08 7.91605 0.447715 8.36377 1 8.36377L1 7.36377L1 6.36377ZM33.6551 8.07088C34.0456 7.68036 34.0456 7.04719 33.6551 6.65667L27.2911 0.292704C26.9006 -0.0978202 26.2674 -0.0978203 25.8769 0.292704C25.4864 0.683228 25.4864 1.31639 25.8769 1.70692L31.5338 7.36377L25.8769 13.0206C25.4864 13.4112 25.4864 14.0443 25.8769 14.4348C26.2674 14.8254 26.9006 14.8254 27.2911 14.4348L33.6551 8.07088ZM1 7.36377L1 8.36377L32.948 8.36377L32.948 7.36377L32.948 6.36377L1 6.36377L1 7.36377Z" fill="white"/>
</svg>
