<svg width="73" height="73" viewBox="0 0 73 73" fill="none" xmlns="http://www.w3.org/2000/svg">
<path d="M1 36.4167C1 19.7213 1 11.3735 6.185 6.185C11.3771 1 19.7213 1 36.4167 1C53.1121 1 61.4598 1 66.6448 6.185C71.8333 11.3771 71.8333 19.7213 71.8333 36.4167C71.8333 53.1121 71.8333 61.4598 66.6448 66.6448C61.4633 71.8333 53.1121 71.8333 36.4167 71.8333C19.7213 71.8333 11.3735 71.8333 6.185 66.6448C1 61.4633 1 53.1121 1 36.4167Z" fill="url(#paint0_linear_1293_6191)" stroke="url(#paint1_linear_1293_6191)" stroke-width="2"/>
<path d="M29.3244 50.7377V56.4654M20.8121 16.3711H37.8367C38.5893 16.3711 39.311 16.6728 39.8431 17.2099C40.3752 17.747 40.6742 18.4754 40.6742 19.235V56.1075C40.6742 56.2024 40.6368 56.2934 40.5703 56.3606C40.5038 56.4277 40.4136 56.4654 40.3195 56.4654H17.9746V19.235C17.9746 18.4754 18.2736 17.747 18.8057 17.2099C19.3378 16.6728 20.0595 16.3711 20.8121 16.3711ZM42.0929 30.6905H52.024C52.7765 30.6905 53.4982 30.9922 54.0303 31.5293C54.5625 32.0664 54.8614 32.7948 54.8614 33.5544V56.4654H40.6742V32.1224C40.6742 31.7427 40.8236 31.3784 41.0897 31.1099C41.3558 30.8414 41.7166 30.6905 42.0929 30.6905Z" stroke="white" stroke-opacity="0.8" stroke-width="1.3" stroke-linecap="round" stroke-linejoin="round"/>
<mask id="path-3-inside-1_1293_6191" fill="white">
<path d="M22.6914 51.6416C22.4146 51.6792 22.1335 51.6259 21.8874 51.4894C21.6412 51.3528 21.4426 51.1399 21.3192 50.8803C21.1959 50.6208 21.154 50.3278 21.1995 50.0423C21.2451 49.7569 21.3757 49.4934 21.5731 49.2889C21.7705 49.0843 22.0247 48.9489 22.3001 48.9017C22.5755 48.8545 22.8583 48.8979 23.1087 49.0258C23.3591 49.1536 23.5646 49.3595 23.6964 49.6146C23.8281 49.8696 23.8795 50.161 23.8433 50.4479C23.8051 50.7506 23.6715 51.0318 23.4632 51.2477C23.2548 51.4635 22.9835 51.602 22.6914 51.6416ZM22.6914 44.7163C22.4146 44.7538 22.1335 44.7005 21.8874 44.564C21.6412 44.4274 21.4426 44.2145 21.3192 43.955C21.1959 43.6954 21.154 43.4024 21.1995 43.117C21.2451 42.8315 21.3757 42.568 21.5731 42.3635C21.7705 42.1589 22.0247 42.0235 22.3001 41.9763C22.5755 41.9292 22.8583 41.9725 23.1087 42.1004C23.3591 42.2282 23.5646 42.4341 23.6964 42.6892C23.8281 42.9442 23.8795 43.2356 23.8433 43.5225C23.8051 43.8252 23.6715 44.1064 23.4632 44.3223C23.2548 44.5382 22.9835 44.6767 22.6914 44.7163ZM22.6914 37.7909C22.4146 37.8284 22.1335 37.7751 21.8874 37.6386C21.6412 37.5021 21.4426 37.2891 21.3192 37.0296C21.1959 36.77 21.154 36.477 21.1995 36.1916C21.2451 35.9061 21.3757 35.6427 21.5731 35.4381C21.7705 35.2335 22.0247 35.0981 22.3001 35.051C22.5755 35.0038 22.8583 35.0471 23.1087 35.175C23.3591 35.3028 23.5646 35.5087 23.6964 35.7638C23.8281 36.0188 23.8795 36.3102 23.8433 36.5971C23.8051 36.8998 23.6715 37.181 23.4632 37.3969C23.2548 37.6128 22.9835 37.7513 22.6914 37.7909ZM22.6914 30.8655C22.4146 30.903 22.1335 30.8498 21.8874 30.7132C21.6412 30.5767 21.4426 30.3637 21.3192 30.1042C21.1959 29.8447 21.154 29.5516 21.1995 29.2662C21.2451 28.9808 21.3757 28.7173 21.5731 28.5127C21.7705 28.3081 22.0247 28.1728 22.3001 28.1256C22.5755 28.0784 22.8583 28.1218 23.1087 28.2496C23.3591 28.3775 23.5646 28.5833 23.6964 28.8384C23.8281 29.0935 23.8795 29.3849 23.8433 29.6717C23.8051 29.9745 23.6715 30.2556 23.4632 30.4715C23.2548 30.6874 22.9835 30.8259 22.6914 30.8655ZM22.6914 23.9401C22.4146 23.9776 22.1335 23.9244 21.8874 23.7878C21.6412 23.6513 21.4426 23.4383 21.3192 23.1788C21.1959 22.9193 21.154 22.6262 21.1995 22.3408C21.2451 22.0554 21.3757 21.7919 21.5731 21.5873C21.7705 21.3828 22.0247 21.2474 22.3001 21.2002C22.5755 21.153 22.8583 21.1964 23.1087 21.3242C23.3591 21.4521 23.5646 21.658 23.6964 21.913C23.8281 22.1681 23.8795 22.4595 23.8433 22.7463C23.8051 23.0491 23.6715 23.3302 23.4632 23.5461C23.2548 23.762 22.9835 23.9005 22.6914 23.9401ZM29.3738 44.7163C29.097 44.7538 28.8158 44.7005 28.5697 44.564C28.3236 44.4274 28.125 44.2145 28.0016 43.955C27.8782 43.6954 27.8364 43.4024 27.8819 43.117C27.9275 42.8315 28.0581 42.568 28.2555 42.3635C28.4529 42.1589 28.7071 42.0235 28.9825 41.9763C29.2579 41.9292 29.5407 41.9725 29.7911 42.1004C30.0415 42.2282 30.247 42.4341 30.3788 42.6892C30.5105 42.9442 30.5619 43.2356 30.5257 43.5225C30.4875 43.8252 30.3539 44.1064 30.1455 44.3223C29.9372 44.5382 29.6659 44.6767 29.3738 44.7163ZM29.3738 37.7909C29.097 37.8284 28.8158 37.7751 28.5697 37.6386C28.3236 37.5021 28.125 37.2891 28.0016 37.0296C27.8782 36.77 27.8364 36.477 27.8819 36.1916C27.9275 35.9061 28.0581 35.6427 28.2555 35.4381C28.4529 35.2335 28.7071 35.0981 28.9825 35.051C29.2579 35.0038 29.5407 35.0471 29.7911 35.175C30.0415 35.3028 30.247 35.5087 30.3788 35.7638C30.5105 36.0188 30.5619 36.3102 30.5257 36.5971C30.4875 36.8998 30.3539 37.181 30.1455 37.3969C29.9372 37.6128 29.6659 37.7513 29.3738 37.7909ZM29.3738 30.8655C29.097 30.903 28.8158 30.8498 28.5697 30.7132C28.3236 30.5767 28.125 30.3637 28.0016 30.1042C27.8782 29.8447 27.8364 29.5516 27.8819 29.2662C27.9275 28.9808 28.0581 28.7173 28.2555 28.5127C28.4529 28.3081 28.7071 28.1728 28.9825 28.1256C29.2579 28.0784 29.5407 28.1218 29.7911 28.2496C30.0415 28.3775 30.247 28.5833 30.3788 28.8384C30.5105 29.0935 30.5619 29.3849 30.5257 29.6717C30.4875 29.9745 30.3539 30.2556 30.1455 30.4715C29.9372 30.6874 29.6659 30.8259 29.3738 30.8655ZM29.3738 23.9401C29.097 23.9776 28.8158 23.9244 28.5697 23.7878C28.3236 23.6513 28.125 23.4383 28.0016 23.1788C27.8782 22.9193 27.8364 22.6262 27.8819 22.3408C27.9275 22.0554 28.0581 21.7919 28.2555 21.5873C28.4529 21.3828 28.7071 21.2474 28.9825 21.2002C29.2579 21.153 29.5407 21.1964 29.7911 21.3242C30.0415 21.4521 30.247 21.658 30.3788 21.913C30.5105 22.1681 30.5619 22.4595 30.5257 22.7463C30.4875 23.0491 30.3539 23.3302 30.1455 23.5461C29.9372 23.762 29.6659 23.9005 29.3738 23.9401ZM36.0562 51.6416C35.7794 51.6792 35.4982 51.6259 35.2521 51.4894C35.006 51.3528 34.8074 51.1399 34.684 50.8803C34.5606 50.6208 34.5188 50.3278 34.5643 50.0423C34.6098 49.7569 34.7405 49.4934 34.9379 49.2889C35.1353 49.0843 35.3895 48.9489 35.6649 48.9017C35.9403 48.8545 36.2231 48.8979 36.4735 49.0258C36.7239 49.1536 36.9294 49.3595 37.0612 49.6146C37.1929 49.8696 37.2443 50.161 37.2081 50.4479C37.1699 50.7506 37.0362 51.0318 36.8279 51.2477C36.6196 51.4635 36.3483 51.602 36.0562 51.6416ZM36.0562 44.7163C35.7794 44.7538 35.4982 44.7005 35.2521 44.564C35.006 44.4274 34.8074 44.2145 34.684 43.955C34.5606 43.6954 34.5188 43.4024 34.5643 43.117C34.6098 42.8315 34.7405 42.568 34.9379 42.3635C35.1353 42.1589 35.3895 42.0235 35.6649 41.9763C35.9403 41.9292 36.2231 41.9725 36.4735 42.1004C36.7239 42.2282 36.9294 42.4341 37.0612 42.6892C37.1929 42.9442 37.2443 43.2356 37.2081 43.5225C37.1699 43.8252 37.0362 44.1064 36.8279 44.3223C36.6196 44.5382 36.3483 44.6767 36.0562 44.7163ZM36.0562 37.7909C35.7794 37.8284 35.4982 37.7751 35.2521 37.6386C35.006 37.5021 34.8074 37.2891 34.684 37.0296C34.5606 36.77 34.5188 36.477 34.5643 36.1916C34.6098 35.9061 34.7405 35.6427 34.9379 35.4381C35.1353 35.2335 35.3895 35.0981 35.6649 35.051C35.9403 35.0038 36.2231 35.0471 36.4735 35.175C36.7239 35.3028 36.9294 35.5087 37.0612 35.7638C37.1929 36.0188 37.2443 36.3102 37.2081 36.5971C37.1699 36.8998 37.0362 37.181 36.8279 37.3969C36.6196 37.6128 36.3483 37.7513 36.0562 37.7909Z"/>
</mask>
<path d="M22.6914 51.6416C22.4146 51.6792 22.1335 51.6259 21.8874 51.4894C21.6412 51.3528 21.4426 51.1399 21.3192 50.8803C21.1959 50.6208 21.154 50.3278 21.1995 50.0423C21.2451 49.7569 21.3757 49.4934 21.5731 49.2889C21.7705 49.0843 22.0247 48.9489 22.3001 48.9017C22.5755 48.8545 22.8583 48.8979 23.1087 49.0258C23.3591 49.1536 23.5646 49.3595 23.6964 49.6146C23.8281 49.8696 23.8795 50.161 23.8433 50.4479C23.8051 50.7506 23.6715 51.0318 23.4632 51.2477C23.2548 51.4635 22.9835 51.602 22.6914 51.6416ZM22.6914 44.7163C22.4146 44.7538 22.1335 44.7005 21.8874 44.564C21.6412 44.4274 21.4426 44.2145 21.3192 43.955C21.1959 43.6954 21.154 43.4024 21.1995 43.117C21.2451 42.8315 21.3757 42.568 21.5731 42.3635C21.7705 42.1589 22.0247 42.0235 22.3001 41.9763C22.5755 41.9292 22.8583 41.9725 23.1087 42.1004C23.3591 42.2282 23.5646 42.4341 23.6964 42.6892C23.8281 42.9442 23.8795 43.2356 23.8433 43.5225C23.8051 43.8252 23.6715 44.1064 23.4632 44.3223C23.2548 44.5382 22.9835 44.6767 22.6914 44.7163ZM22.6914 37.7909C22.4146 37.8284 22.1335 37.7751 21.8874 37.6386C21.6412 37.5021 21.4426 37.2891 21.3192 37.0296C21.1959 36.77 21.154 36.477 21.1995 36.1916C21.2451 35.9061 21.3757 35.6427 21.5731 35.4381C21.7705 35.2335 22.0247 35.0981 22.3001 35.051C22.5755 35.0038 22.8583 35.0471 23.1087 35.175C23.3591 35.3028 23.5646 35.5087 23.6964 35.7638C23.8281 36.0188 23.8795 36.3102 23.8433 36.5971C23.8051 36.8998 23.6715 37.181 23.4632 37.3969C23.2548 37.6128 22.9835 37.7513 22.6914 37.7909ZM22.6914 30.8655C22.4146 30.903 22.1335 30.8498 21.8874 30.7132C21.6412 30.5767 21.4426 30.3637 21.3192 30.1042C21.1959 29.8447 21.154 29.5516 21.1995 29.2662C21.2451 28.9808 21.3757 28.7173 21.5731 28.5127C21.7705 28.3081 22.0247 28.1728 22.3001 28.1256C22.5755 28.0784 22.8583 28.1218 23.1087 28.2496C23.3591 28.3775 23.5646 28.5833 23.6964 28.8384C23.8281 29.0935 23.8795 29.3849 23.8433 29.6717C23.8051 29.9745 23.6715 30.2556 23.4632 30.4715C23.2548 30.6874 22.9835 30.8259 22.6914 30.8655ZM22.6914 23.9401C22.4146 23.9776 22.1335 23.9244 21.8874 23.7878C21.6412 23.6513 21.4426 23.4383 21.3192 23.1788C21.1959 22.9193 21.154 22.6262 21.1995 22.3408C21.2451 22.0554 21.3757 21.7919 21.5731 21.5873C21.7705 21.3828 22.0247 21.2474 22.3001 21.2002C22.5755 21.153 22.8583 21.1964 23.1087 21.3242C23.3591 21.4521 23.5646 21.658 23.6964 21.913C23.8281 22.1681 23.8795 22.4595 23.8433 22.7463C23.8051 23.0491 23.6715 23.3302 23.4632 23.5461C23.2548 23.762 22.9835 23.9005 22.6914 23.9401ZM29.3738 44.7163C29.097 44.7538 28.8158 44.7005 28.5697 44.564C28.3236 44.4274 28.125 44.2145 28.0016 43.955C27.8782 43.6954 27.8364 43.4024 27.8819 43.117C27.9275 42.8315 28.0581 42.568 28.2555 42.3635C28.4529 42.1589 28.7071 42.0235 28.9825 41.9763C29.2579 41.9292 29.5407 41.9725 29.7911 42.1004C30.0415 42.2282 30.247 42.4341 30.3788 42.6892C30.5105 42.9442 30.5619 43.2356 30.5257 43.5225C30.4875 43.8252 30.3539 44.1064 30.1455 44.3223C29.9372 44.5382 29.6659 44.6767 29.3738 44.7163ZM29.3738 37.7909C29.097 37.8284 28.8158 37.7751 28.5697 37.6386C28.3236 37.5021 28.125 37.2891 28.0016 37.0296C27.8782 36.77 27.8364 36.477 27.8819 36.1916C27.9275 35.9061 28.0581 35.6427 28.2555 35.4381C28.4529 35.2335 28.7071 35.0981 28.9825 35.051C29.2579 35.0038 29.5407 35.0471 29.7911 35.175C30.0415 35.3028 30.247 35.5087 30.3788 35.7638C30.5105 36.0188 30.5619 36.3102 30.5257 36.5971C30.4875 36.8998 30.3539 37.181 30.1455 37.3969C29.9372 37.6128 29.6659 37.7513 29.3738 37.7909ZM29.3738 30.8655C29.097 30.903 28.8158 30.8498 28.5697 30.7132C28.3236 30.5767 28.125 30.3637 28.0016 30.1042C27.8782 29.8447 27.8364 29.5516 27.8819 29.2662C27.9275 28.9808 28.0581 28.7173 28.2555 28.5127C28.4529 28.3081 28.7071 28.1728 28.9825 28.1256C29.2579 28.0784 29.5407 28.1218 29.7911 28.2496C30.0415 28.3775 30.247 28.5833 30.3788 28.8384C30.5105 29.0935 30.5619 29.3849 30.5257 29.6717C30.4875 29.9745 30.3539 30.2556 30.1455 30.4715C29.9372 30.6874 29.6659 30.8259 29.3738 30.8655ZM29.3738 23.9401C29.097 23.9776 28.8158 23.9244 28.5697 23.7878C28.3236 23.6513 28.125 23.4383 28.0016 23.1788C27.8782 22.9193 27.8364 22.6262 27.8819 22.3408C27.9275 22.0554 28.0581 21.7919 28.2555 21.5873C28.4529 21.3828 28.7071 21.2474 28.9825 21.2002C29.2579 21.153 29.5407 21.1964 29.7911 21.3242C30.0415 21.4521 30.247 21.658 30.3788 21.913C30.5105 22.1681 30.5619 22.4595 30.5257 22.7463C30.4875 23.0491 30.3539 23.3302 30.1455 23.5461C29.9372 23.762 29.6659 23.9005 29.3738 23.9401ZM36.0562 51.6416C35.7794 51.6792 35.4982 51.6259 35.2521 51.4894C35.006 51.3528 34.8074 51.1399 34.684 50.8803C34.5606 50.6208 34.5188 50.3278 34.5643 50.0423C34.6098 49.7569 34.7405 49.4934 34.9379 49.2889C35.1353 49.0843 35.3895 48.9489 35.6649 48.9017C35.9403 48.8545 36.2231 48.8979 36.4735 49.0258C36.7239 49.1536 36.9294 49.3595 37.0612 49.6146C37.1929 49.8696 37.2443 50.161 37.2081 50.4479C37.1699 50.7506 37.0362 51.0318 36.8279 51.2477C36.6196 51.4635 36.3483 51.602 36.0562 51.6416ZM36.0562 44.7163C35.7794 44.7538 35.4982 44.7005 35.2521 44.564C35.006 44.4274 34.8074 44.2145 34.684 43.955C34.5606 43.6954 34.5188 43.4024 34.5643 43.117C34.6098 42.8315 34.7405 42.568 34.9379 42.3635C35.1353 42.1589 35.3895 42.0235 35.6649 41.9763C35.9403 41.9292 36.2231 41.9725 36.4735 42.1004C36.7239 42.2282 36.9294 42.4341 37.0612 42.6892C37.1929 42.9442 37.2443 43.2356 37.2081 43.5225C37.1699 43.8252 37.0362 44.1064 36.8279 44.3223C36.6196 44.5382 36.3483 44.6767 36.0562 44.7163ZM36.0562 37.7909C35.7794 37.8284 35.4982 37.7751 35.2521 37.6386C35.006 37.5021 34.8074 37.2891 34.684 37.0296C34.5606 36.77 34.5188 36.477 34.5643 36.1916C34.6098 35.9061 34.7405 35.6427 34.9379 35.4381C35.1353 35.2335 35.3895 35.0981 35.6649 35.051C35.9403 35.0038 36.2231 35.0471 36.4735 35.175C36.7239 35.3028 36.9294 35.5087 37.0612 35.7638C37.1929 36.0188 37.2443 36.3102 37.2081 36.5971C37.1699 36.8998 37.0362 37.181 36.8279 37.3969C36.6196 37.6128 36.3483 37.7513 36.0562 37.7909Z" fill="white" stroke="white" stroke-opacity="0.8" stroke-width="0.0625" mask="url(#path-3-inside-1_1293_6191)"/>
<path d="M36.4177 30.6935C37.2061 30.6935 37.8452 30.0512 37.8452 29.2588C37.8452 28.4665 37.2061 27.8242 36.4177 27.8242C35.6293 27.8242 34.9902 28.4665 34.9902 29.2588C34.9902 30.0512 35.6293 30.6935 36.4177 30.6935Z" fill="white"/>
<path d="M36.418 27.8398C37.1975 27.84 37.8291 28.4751 37.8291 29.2588C37.8291 30.0425 37.1975 30.6776 36.418 30.6777C35.6383 30.6777 35.0059 30.0426 35.0059 29.2588C35.0059 28.475 35.6383 27.8398 36.418 27.8398Z" stroke="white" stroke-opacity="0.8" stroke-width="0.03125"/>
<path d="M37.0976 23.9401C36.8259 23.9777 36.5498 23.9244 36.3081 23.7879C36.0665 23.6513 35.8714 23.4383 35.7503 23.1788C35.6292 22.9193 35.5881 22.6263 35.6328 22.3408C35.6775 22.0554 35.8058 21.7919 35.9996 21.5873C36.1934 21.3828 36.443 21.2474 36.7134 21.2002C36.9838 21.153 37.2615 21.1964 37.5073 21.3242C37.7532 21.4521 37.955 21.658 38.0843 21.913C38.2137 22.1681 38.2641 22.4595 38.2286 22.7464C38.1911 23.0491 38.0599 23.3303 37.8553 23.5462C37.6508 23.762 37.3844 23.9005 37.0976 23.9401ZM48.737 48.8831C48.4774 48.8831 48.2237 48.9644 48.008 49.1166C47.7922 49.2688 47.624 49.4851 47.5247 49.7382C47.4253 49.9913 47.3993 50.2698 47.45 50.5385C47.5006 50.8071 47.6256 51.0539 47.8091 51.2477C47.9926 51.4414 48.2264 51.5733 48.481 51.6267C48.7355 51.6802 48.9994 51.6527 49.2391 51.5479C49.4789 51.4431 49.6839 51.2655 49.828 51.0378C49.9722 50.81 50.0492 50.5422 50.0492 50.2682C50.0492 49.9009 49.9109 49.5486 49.6649 49.2888C49.4188 49.0291 49.085 48.8831 48.737 48.8831ZM48.737 41.9577C48.4774 41.9577 48.2237 42.0389 48.008 42.1911C47.7922 42.3433 47.624 42.5596 47.5247 42.8127C47.4253 43.0658 47.3993 43.3443 47.45 43.613C47.5006 43.8817 47.6256 44.1285 47.8091 44.3222C47.9926 44.5159 48.2264 44.6478 48.481 44.7012C48.7355 44.7547 48.9994 44.7273 49.2391 44.6224C49.4789 44.5176 49.6839 44.3401 49.828 44.1123C49.9722 43.8845 50.0492 43.6167 50.0492 43.3428C50.0492 42.9754 49.9109 42.6231 49.6649 42.3633C49.4188 42.1036 49.085 41.9577 48.737 41.9577ZM48.737 35.0322C48.4774 35.0322 48.2237 35.1134 48.008 35.2656C47.7922 35.4178 47.624 35.6341 47.5247 35.8872C47.4253 36.1403 47.3993 36.4188 47.45 36.6875C47.5006 36.9562 47.6256 37.203 47.8091 37.3967C47.9926 37.5904 48.2264 37.7223 48.481 37.7758C48.7355 37.8292 48.9994 37.8018 49.2391 37.6969C49.4789 37.5921 49.6839 37.4146 49.828 37.1868C49.9722 36.959 50.0492 36.6912 50.0492 36.4173C50.0492 36.0499 49.9109 35.6976 49.6649 35.4379C49.4188 35.1781 49.085 35.0322 48.737 35.0322ZM43.4881 48.8831C43.2286 48.8831 42.9749 48.9644 42.7591 49.1166C42.5433 49.2688 42.3751 49.4851 42.2758 49.7382C42.1765 49.9913 42.1505 50.2698 42.2011 50.5385C42.2517 50.8071 42.3767 51.0539 42.5602 51.2477C42.7438 51.4414 42.9776 51.5733 43.2321 51.6267C43.4867 51.6802 43.7505 51.6527 43.9903 51.5479C44.2301 51.4431 44.435 51.2655 44.5792 51.0378C44.7234 50.81 44.8003 50.5422 44.8003 50.2682C44.8003 49.9009 44.6621 49.5486 44.416 49.2888C44.1699 49.0291 43.8361 48.8831 43.4881 48.8831ZM43.4881 41.9577C43.2286 41.9577 42.9749 42.0389 42.7591 42.1911C42.5433 42.3433 42.3751 42.5596 42.2758 42.8127C42.1765 43.0658 42.1505 43.3443 42.2011 43.613C42.2517 43.8817 42.3767 44.1285 42.5602 44.3222C42.7438 44.5159 42.9776 44.6478 43.2321 44.7012C43.4867 44.7547 43.7505 44.7273 43.9903 44.6224C44.2301 44.5176 44.435 44.3401 44.5792 44.1123C44.7234 43.8845 44.8003 43.6167 44.8003 43.3428C44.8003 42.9754 44.6621 42.6231 44.416 42.3633C44.1699 42.1036 43.8361 41.9577 43.4881 41.9577ZM43.4881 35.0322C43.2286 35.0322 42.9749 35.1134 42.7591 35.2656C42.5433 35.4178 42.3751 35.6341 42.2758 35.8872C42.1765 36.1403 42.1505 36.4188 42.2011 36.6875C42.2517 36.9562 42.3767 37.203 42.5602 37.3967C42.7438 37.5904 42.9776 37.7223 43.2321 37.7758C43.4867 37.8292 43.7505 37.8018 43.9903 37.6969C44.2301 37.5921 44.435 37.4146 44.5792 37.1868C44.7234 36.959 44.8003 36.6912 44.8003 36.4173C44.8003 36.0499 44.6621 35.6976 44.416 35.4379C44.1699 35.1781 43.8361 35.0322 43.4881 35.0322Z" fill="white"/>
<path d="M43.4883 48.8984C43.8318 48.8985 44.1611 49.0431 44.4043 49.2998C44.6476 49.5566 44.7852 49.9051 44.7852 50.2686C44.7851 50.5394 44.7088 50.8042 44.5664 51.0293C44.4239 51.2544 44.221 51.4296 43.9844 51.5332C43.7476 51.6367 43.4867 51.6641 43.2354 51.6113C42.984 51.5586 42.7527 51.4287 42.5713 51.2373C42.3899 51.0458 42.2669 50.801 42.2168 50.5352C42.1668 50.2696 42.1919 49.9943 42.29 49.7441C42.3883 49.4938 42.5553 49.2793 42.7686 49.1289C42.9817 48.9788 43.2322 48.8984 43.4883 48.8984ZM48.7373 48.8984C49.0808 48.8985 49.4102 49.0431 49.6533 49.2998C49.8966 49.5566 50.0332 49.9051 50.0332 50.2686C50.0331 50.5395 49.957 50.8041 49.8145 51.0293C49.6719 51.2545 49.4692 51.4297 49.2324 51.5332C48.9957 51.6366 48.7356 51.664 48.4844 51.6113C48.2331 51.5586 48.0017 51.4287 47.8203 51.2373C47.6389 51.0458 47.5159 50.801 47.4658 50.5352C47.4158 50.2695 47.4409 49.9943 47.5391 49.7441C47.6373 49.4938 47.8034 49.2793 48.0166 49.1289C48.2298 48.9785 48.4811 48.8984 48.7373 48.8984ZM43.4883 41.9736C43.8317 41.9737 44.1611 42.1175 44.4043 42.374C44.6476 42.6308 44.7852 42.9793 44.7852 43.3428C44.7852 43.6136 44.7088 43.8784 44.5664 44.1035C44.4239 44.3287 44.2211 44.5048 43.9844 44.6084C43.7476 44.7119 43.4867 44.7383 43.2354 44.6855C42.984 44.6328 42.7527 44.503 42.5713 44.3115C42.39 44.1201 42.2669 43.876 42.2168 43.6104C42.1667 43.3446 42.1918 43.0687 42.29 42.8184C42.3883 42.568 42.5553 42.3545 42.7686 42.2041C42.9817 42.0538 43.2321 41.9736 43.4883 41.9736ZM48.7373 41.9736C49.0807 41.9737 49.4102 42.1174 49.6533 42.374C49.8966 42.6308 50.0332 42.9793 50.0332 43.3428C50.0332 43.6138 49.957 43.8783 49.8145 44.1035C49.6719 44.3287 49.4693 44.5049 49.2324 44.6084C48.9958 44.7117 48.7355 44.7383 48.4844 44.6855C48.233 44.6328 48.0017 44.503 47.8203 44.3115C47.639 44.1201 47.516 43.876 47.4658 43.6104C47.4157 43.3445 47.4408 43.0687 47.5391 42.8184C47.6372 42.5682 47.8036 42.3545 48.0166 42.2041C48.2298 42.0537 48.4811 41.9736 48.7373 41.9736ZM43.4883 35.0479C43.8317 35.0479 44.1611 35.1918 44.4043 35.4482C44.6475 35.7049 44.7851 36.0536 44.7852 36.417C44.7852 36.688 44.709 36.9535 44.5664 37.1787C44.4239 37.4038 44.2211 37.5791 43.9844 37.6826C43.7476 37.7861 43.4867 37.8135 43.2354 37.7607C42.984 37.708 42.7527 37.5772 42.5713 37.3857C42.39 37.1943 42.2669 36.9503 42.2168 36.6846C42.1667 36.4188 42.1918 36.1429 42.29 35.8926C42.3883 35.6423 42.5554 35.4287 42.7686 35.2783C42.9817 35.1281 43.2322 35.0479 43.4883 35.0479ZM48.7373 35.0479C49.0807 35.0479 49.4102 35.1918 49.6533 35.4482C49.8965 35.7049 50.0331 36.0536 50.0332 36.417C50.0332 36.688 49.957 36.9535 49.8145 37.1787C49.6719 37.4038 49.4691 37.5791 49.2324 37.6826C48.9958 37.786 48.7355 37.8134 48.4844 37.7607C48.233 37.708 48.0017 37.5772 47.8203 37.3857C47.639 37.1943 47.5159 36.9503 47.4658 36.6846C47.4157 36.4188 47.4408 36.1429 47.5391 35.8926C47.6373 35.6424 47.8036 35.4286 48.0166 35.2783C48.2298 35.1279 48.4811 35.0479 48.7373 35.0479ZM36.7158 21.2158C36.9828 21.1692 37.2572 21.2117 37.5 21.3379C37.7428 21.4642 37.9424 21.6678 38.0703 21.9199C38.1982 22.1721 38.248 22.4604 38.2129 22.7441C38.1758 23.0436 38.0459 23.3218 37.8438 23.5352C37.6416 23.7485 37.3788 23.8857 37.0957 23.9248C36.8274 23.9618 36.5541 23.9093 36.3154 23.7744C36.0768 23.6395 35.8844 23.4285 35.7646 23.1719C35.6449 22.9152 35.6042 22.6251 35.6484 22.3428C35.6927 22.0606 35.8193 21.7998 36.0107 21.5977C36.2022 21.3956 36.449 21.2625 36.7158 21.2158Z" stroke="white" stroke-opacity="0.8" stroke-width="0.03125"/>
<defs>
<linearGradient id="paint0_linear_1293_6191" x1="36.4167" y1="1" x2="36.4167" y2="71.8333" gradientUnits="userSpaceOnUse">
<stop stop-color="#00A9EE"/>
<stop offset="1" stop-color="#00378A"/>
</linearGradient>
<linearGradient id="paint1_linear_1293_6191" x1="61.1797" y1="10.4497" x2="18.9047" y2="68.64" gradientUnits="userSpaceOnUse">
<stop stop-color="#00A9EE"/>
<stop offset="1" stop-color="#00378A"/>
</linearGradient>
</defs>
</svg>
