<svg width="73" height="73" viewBox="0 0 73 73" fill="none" xmlns="http://www.w3.org/2000/svg">
<path d="M1 36.4167C1 19.7213 1 11.3735 6.185 6.185C11.3771 1 19.7213 1 36.4167 1C53.1121 1 61.4598 1 66.6448 6.185C71.8333 11.3771 71.8333 19.7213 71.8333 36.4167C71.8333 53.1121 71.8333 61.4598 66.6448 66.6448C61.4633 71.8333 53.1121 71.8333 36.4167 71.8333C19.7213 71.8333 11.3735 71.8333 6.185 66.6448C1 61.4633 1 53.1121 1 36.4167Z" fill="url(#paint0_linear_1397_10938)" stroke="url(#paint1_linear_1397_10938)" stroke-width="2"/>
<path d="M42.1552 22.6121C42.2487 23.0796 42.6591 23.416 43.1358 23.416H53.916C54.4683 23.416 54.916 23.8637 54.916 24.416V44.916C54.916 45.4683 54.4683 45.916 53.916 45.916H39.9858C39.5091 45.916 39.0987 45.5796 39.0052 45.1121L38.4268 42.2199C38.3333 41.7525 37.9229 41.416 37.4462 41.416H27.666C26.5614 41.416 25.666 42.3114 25.666 43.416V55.166C25.666 56.2706 24.7706 57.166 23.666 57.166H23.166C22.0614 57.166 21.166 56.2706 21.166 55.166V20.916C21.166 19.8114 22.0614 18.916 23.166 18.916H39.7764C40.7298 18.916 41.5506 19.5889 41.7376 20.5238L42.1552 22.6121ZM41.416 41.416H45.916V36.916H50.416V32.416H45.916V27.916H41.416V32.416L39.166 27.916V23.416H34.666V27.916H30.166V23.416H25.666V27.916H30.166V32.416H25.666V36.916H30.166V32.416H34.666V36.916H39.166V32.416L41.416 36.916V41.416ZM34.666 32.416V27.916H39.166V32.416H34.666ZM41.416 32.416H45.916V36.916H41.416V32.416Z" fill="white"/>
<defs>
<linearGradient id="paint0_linear_1397_10938" x1="36.4167" y1="1" x2="36.4167" y2="71.8333" gradientUnits="userSpaceOnUse">
<stop stop-color="#00A9EE"/>
<stop offset="1" stop-color="#00378A"/>
</linearGradient>
<linearGradient id="paint1_linear_1397_10938" x1="61.1797" y1="10.4497" x2="18.9047" y2="68.64" gradientUnits="userSpaceOnUse">
<stop stop-color="#00A9EE"/>
<stop offset="1" stop-color="#00378A"/>
</linearGradient>
</defs>
</svg>
