<svg width="62" height="62" viewBox="0 0 62 62" fill="none" xmlns="http://www.w3.org/2000/svg">
<path d="M1 30.5833C1 16.6378 1 9.66496 5.331 5.331C9.66792 1 16.6378 1 30.5833 1C44.5289 1 51.5017 1 55.8327 5.331C60.1667 9.66792 60.1667 16.6378 60.1667 30.5833C60.1667 44.5289 60.1667 51.5017 55.8327 55.8327C51.5047 60.1667 44.5289 60.1667 30.5833 60.1667C16.6378 60.1667 9.66496 60.1667 5.331 55.8327C1 51.5047 1 44.5289 1 30.5833Z" fill="url(#paint0_linear_1712_14947)" stroke="url(#paint1_linear_1712_14947)" stroke-width="2"/>
<path d="M18.7432 19.7503C22.7037 16.9215 25.017 16.2541 26.5801 16.5179C28.1385 16.7809 29.1124 17.9819 30.3848 19.5101C31.6215 20.9954 33.0847 22.6952 35.5918 23.4603C38.0957 24.2243 41.5436 24.0313 46.7168 22.0091H46.7178C46.7972 21.9778 46.8628 21.9683 46.9111 21.9671C42.7197 27.9146 39.9861 30.782 38.041 31.9769C37.0837 32.5649 36.3519 32.7252 35.752 32.68C35.1457 32.6343 34.6031 32.3736 34.0254 31.9847C33.7358 31.7897 33.4487 31.5712 33.1416 31.3372C32.8385 31.1063 32.5165 30.8618 32.1768 30.6341C31.4941 30.1766 30.7117 29.7671 29.7539 29.6165C27.8228 29.3131 25.3777 30.0845 21.7969 33.0159L21.5498 33.2191L21.6299 33.5286L24.6904 45.2855H22.0977L15.7285 20.8275L18.6182 19.8157L18.6846 19.7923L18.7432 19.7503Z" stroke="white"/>
<defs>
<linearGradient id="paint0_linear_1712_14947" x1="30.5833" y1="1" x2="30.5833" y2="60.1667" gradientUnits="userSpaceOnUse">
<stop stop-color="#00A9EE"/>
<stop offset="1" stop-color="#00378A"/>
</linearGradient>
<linearGradient id="paint1_linear_1712_14947" x1="51.2678" y1="8.89328" x2="15.9557" y2="57.4993" gradientUnits="userSpaceOnUse">
<stop stop-color="#00A9EE"/>
<stop offset="1" stop-color="#00378A"/>
</linearGradient>
</defs>
</svg>
