<svg width="73" height="73" viewBox="0 0 73 73" fill="none" xmlns="http://www.w3.org/2000/svg">
<path d="M1 36.4167C1 19.7213 1 11.3735 6.185 6.185C11.3771 1 19.7213 1 36.4167 1C53.1121 1 61.4598 1 66.6448 6.185C71.8333 11.3771 71.8333 19.7213 71.8333 36.4167C71.8333 53.1121 71.8333 61.4598 66.6448 66.6448C61.4633 71.8333 53.1121 71.8333 36.4167 71.8333C19.7213 71.8333 11.3735 71.8333 6.185 66.6448C1 61.4633 1 53.1121 1 36.4167Z" fill="url(#paint0_linear_1361_6179)" stroke="url(#paint1_linear_1361_6179)" stroke-width="2"/>
<g clip-path="url(#clip0_1361_6179)">
<path d="M30.6308 24.713C31.1955 23.6992 32.031 22.8526 33.0492 22.2627C34.0673 21.6727 35.2303 21.3613 36.4152 21.3613C37.6002 21.3613 38.7632 21.6727 39.7813 22.2627C40.7995 22.8526 41.635 23.6992 42.1997 24.713C42.8904 23.9993 43.7878 23.5069 44.7727 23.301C45.7576 23.095 46.7836 23.1853 47.7146 23.5598C48.6456 23.9343 49.4376 24.5754 49.9856 25.3981C50.5336 26.2207 50.8117 27.186 50.783 28.166C50.7543 29.1459 50.4202 30.0943 49.825 30.8852C49.2298 31.6761 48.4016 32.2723 47.4502 32.5947C46.4988 32.9171 45.4692 32.9504 44.498 32.6902C43.5267 32.4301 42.6596 31.8888 42.0117 31.138C41.4217 32.0657 40.5979 32.8313 39.6184 33.3622C38.639 33.8931 37.5364 34.1716 36.4152 34.1713C35.2946 34.1714 34.1925 33.8931 33.2134 33.3626C32.2344 32.832 31.4107 32.067 30.8207 31.1399C30.1726 31.8903 29.3055 32.4314 28.3343 32.6913C27.3631 32.9513 26.3336 32.9178 25.3824 32.5953C24.4311 32.2729 23.6031 31.6767 23.008 30.8858C22.4129 30.0949 22.0789 29.1466 22.0502 28.1668C22.0215 27.1869 22.2996 26.2217 22.8475 25.3991C23.3954 24.5766 24.1872 23.9355 25.1181 23.5609C26.0489 23.1863 27.0748 23.0959 28.0596 23.3016C29.0445 23.5074 29.9399 23.9996 30.6308 24.713ZM31.8226 26.7986C32.0166 27.5152 32.0391 28.2656 31.8884 28.9921C32.1638 29.9553 32.7557 30.8042 33.5737 31.409C34.3917 32.0138 35.3907 32.3413 36.4181 32.3413C37.4454 32.3413 38.4444 32.0138 39.2624 31.409C40.0804 30.8042 40.6723 29.9553 40.9477 28.9921C40.7968 28.2651 40.8187 27.5142 41.0116 26.7967C40.7837 25.7758 40.2036 24.8615 39.3678 24.2058C38.532 23.5501 37.4907 23.1925 36.4171 23.1925C35.3435 23.1925 34.3023 23.5501 33.4665 24.2058C32.6306 24.8615 32.0505 25.7776 31.8226 26.7986ZM29.8939 26.9285C29.6284 26.2698 29.1327 25.7235 28.4941 25.3855C27.8554 25.0475 27.1147 24.9396 26.4024 25.0807C25.69 25.2218 25.0516 25.603 24.5996 26.157C24.1475 26.7111 23.9108 27.4025 23.931 28.1097C23.9512 28.8169 24.2271 29.4945 24.7101 30.0232C25.1932 30.552 25.8523 30.8979 26.5716 31.0003C27.291 31.1026 28.0243 30.9548 28.6427 30.5828C29.261 30.2108 29.7247 29.6384 29.9521 28.9665C29.821 28.2945 29.8013 27.6065 29.8939 26.9285ZM42.8821 28.9646C43.1093 29.6373 43.5731 30.2103 44.1918 30.5829C44.8105 30.9555 45.5444 31.1037 46.2643 31.0014C46.9842 30.8992 47.644 30.5531 48.1275 30.024C48.611 29.4949 48.8872 28.8168 48.9074 28.1091C48.9277 27.4013 48.6907 26.7093 48.2382 26.1548C47.7858 25.6004 47.1468 25.2191 46.4338 25.078C45.7209 24.9369 44.9796 25.0452 44.3406 25.3837C43.7016 25.7222 43.2057 26.2692 42.9404 26.9285C43.0327 27.6059 43.0131 28.2933 42.8821 28.9646ZM23.1638 33.7999C23.8161 33.6316 24.4327 33.8401 24.8576 34.1402C25.0268 34.2591 25.2599 34.4054 25.5438 34.539C25.7611 34.6486 25.9259 34.8363 26.0032 35.0623C26.0805 35.2883 26.0641 35.5348 25.9576 35.7492C25.8511 35.9637 25.6628 36.1292 25.4328 36.2107C25.2028 36.2922 24.9493 36.2831 24.726 36.1855C24.3856 36.026 24.0603 35.8374 23.7541 35.622C23.7236 35.6008 23.69 35.5842 23.6545 35.5726L23.6413 35.5708C23.3878 35.6367 23.1364 35.7099 22.8875 35.7903L21.5979 36.2001C21.1169 36.3525 20.6823 36.6184 20.3326 36.974C19.9829 37.3296 19.7291 37.7639 19.5939 38.2382L19.0619 41.9867C18.9566 42.724 19.357 43.2765 19.9266 43.4082C20.3465 43.5082 20.8559 43.6058 21.455 43.7009C21.5769 43.7201 21.6938 43.7625 21.7989 43.8257C21.904 43.8889 21.9953 43.9716 22.0676 44.0691C22.1399 44.1666 22.1917 44.277 22.2201 44.394C22.2485 44.511 22.253 44.6323 22.2333 44.751C22.2135 44.8697 22.1699 44.9834 22.105 45.0857C22.0401 45.188 21.9551 45.2769 21.8549 45.3472C21.7547 45.4175 21.6413 45.468 21.521 45.4956C21.4008 45.5233 21.2762 45.5276 21.1542 45.5084C20.5963 45.422 20.042 45.3152 19.4924 45.1883C17.8099 44.7986 16.9865 43.2307 17.1989 41.7361L17.7478 37.8832L17.7591 37.8338C17.965 37.0505 18.3711 36.3306 18.9397 35.7411C19.5084 35.1516 20.221 34.7116 21.0113 34.4622L22.2991 34.0505C22.5873 33.9591 22.8756 33.8755 23.1638 33.7999ZM49.9129 33.7999C49.6227 33.7307 49.3202 33.7254 49.0275 33.7843C48.7349 33.8431 48.4594 33.9647 48.221 34.1402C48.0518 34.2591 47.8187 34.4054 47.5349 34.539C47.3175 34.6486 47.1527 34.8363 47.0754 35.0623C46.9982 35.2883 47.0145 35.5348 47.121 35.7492C47.2275 35.9637 47.4158 36.1292 47.6458 36.2107C47.8758 36.2922 48.1294 36.2831 48.3526 36.1855C48.6931 36.026 49.0183 35.8374 49.3245 35.622C49.355 35.6008 49.3886 35.5842 49.4242 35.5726L49.4336 35.5708H49.4373C49.6917 35.6354 49.943 35.7086 50.1912 35.7903L51.4808 36.2001C52.4696 36.5166 53.2197 37.2868 53.4848 38.2382L54.0168 41.9867C54.122 42.724 53.7235 43.2765 53.152 43.4082C52.6465 43.5244 52.1367 43.6221 51.6236 43.7009C51.3773 43.7397 51.157 43.8722 51.011 44.0691C50.8651 44.266 50.8055 44.5113 50.8454 44.751C50.8853 44.9907 51.0214 45.2052 51.2237 45.3472C51.4261 45.4892 51.6781 45.5472 51.9244 45.5084C52.5661 45.4047 53.1201 45.298 53.5863 45.1883C55.2688 44.7986 56.0922 43.2307 55.8797 41.7361L55.3308 37.8832L55.3195 37.8338C55.1137 37.0505 54.7075 36.3306 54.1389 35.7411C53.5703 35.1516 52.8576 34.7116 52.0673 34.4622L50.7796 34.0505C50.4937 33.9595 50.2034 33.8759 49.9129 33.7999Z" fill="white"/>
<path d="M39.7838 36.7705C40.4587 36.3351 41.4005 36.0204 42.3724 36.2857C42.6657 36.3662 42.9583 36.4534 43.2503 36.5473L45.0531 37.1236C46.0992 37.4541 47.0424 38.0367 47.7951 38.8171C48.5477 39.5976 49.0854 40.5506 49.3581 41.5875L49.3713 41.6369L50.1345 47.0081C50.4109 48.9474 49.345 50.9415 47.2132 51.4354C45.0513 51.9367 41.5509 52.4672 36.4169 52.4672C31.2847 52.4672 27.7825 51.9367 25.6206 51.4354C23.4888 50.9415 22.4229 48.9474 22.6992 47.0081L23.4625 41.6369L23.4756 41.5875C23.7483 40.5506 24.286 39.5976 25.0387 38.8171C25.7913 38.0367 26.7345 37.4541 27.7806 37.1236L29.5853 36.5473C29.8761 36.4534 30.1681 36.3662 30.4613 36.2857C31.4333 36.0186 32.3751 36.3351 33.05 36.7705C33.77 37.2352 34.9543 37.806 36.4169 37.806C37.8794 37.806 39.0657 37.2352 39.7838 36.7705ZM41.8611 38.0456C41.5941 37.9725 41.2219 38.0383 40.8234 38.2944C39.9266 38.8744 38.3795 39.6354 36.4169 39.6354C34.4543 39.6354 32.9071 38.8744 32.0104 38.2944C31.6137 38.0383 31.2396 37.9725 30.9727 38.0456C30.7032 38.1188 30.4363 38.1981 30.1718 38.2835L28.3671 38.8616C27.6307 39.0949 26.9656 39.5031 26.4319 40.0493C25.8983 40.5955 25.5128 41.2624 25.3104 41.9899L24.5603 47.2588C24.3911 48.4424 25.0359 49.4175 26.0567 49.6554C28.0626 50.1219 31.4182 50.6378 36.4169 50.6378C41.4155 50.6378 44.7712 50.1219 46.777 49.6554C47.7978 49.4175 48.4407 48.4424 48.2734 47.2588L47.5233 41.9899C47.3209 41.2624 46.9355 40.5955 46.4018 40.0493C45.8681 39.5031 45.203 39.0949 44.4666 38.8616L42.6619 38.2853C42.3975 38.1999 42.1305 38.1206 41.8611 38.0475" fill="white"/>
</g>
<defs>
<linearGradient id="paint0_linear_1361_6179" x1="36.4167" y1="1" x2="36.4167" y2="71.8333" gradientUnits="userSpaceOnUse">
<stop stop-color="#00A9EE"/>
<stop offset="1" stop-color="#00378A"/>
</linearGradient>
<linearGradient id="paint1_linear_1361_6179" x1="61.1797" y1="10.4497" x2="18.9047" y2="68.64" gradientUnits="userSpaceOnUse">
<stop stop-color="#00A9EE"/>
<stop offset="1" stop-color="#00378A"/>
</linearGradient>
<clipPath id="clip0_1361_6179">
<rect width="39" height="32" fill="white" transform="translate(16.916 20.916)"/>
</clipPath>
</defs>
</svg>
