<svg width="645" height="89" viewBox="0 0 645 89" fill="none" xmlns="http://www.w3.org/2000/svg">
<g clip-path="url(#clip0_6007_3950)">
<g clip-path="url(#clip1_6007_3950)">
<path d="M64.8802 1.57988V17.4957H41.2445V87.2056H23.5176V17.5347H1.06363C0.705394 17.5114 0.34972 17.4593 6.10352e-05 17.3787V1.57988H64.8802Z" fill="white"/>
<path d="M393.181 56.6027L394.875 56.3491C399.227 55.7195 403.4 54.1982 407.126 51.8825C409.754 50.2122 412.018 48.0368 413.783 45.485C416.053 42.3557 417.628 38.7862 418.406 35.0111C419.183 31.236 419.145 27.3407 418.294 23.5812C417.659 19.8648 416.203 16.3331 414.031 13.238C411.859 10.1429 409.024 7.56076 405.727 5.67588C400.565 2.8111 394.724 1.36337 388.808 1.48235C377.857 1.48235 366.886 1.48235 355.935 1.48235H355.147V87.2056H372.519V58.8067L372.795 58.6507C372.897 58.8489 373.015 59.0381 373.149 59.2163L395.19 86.874C395.341 87.0878 395.546 87.2594 395.784 87.3721C396.022 87.4848 396.286 87.535 396.549 87.5176H417.427L393.082 56.7782C393.141 56.6417 393.161 56.6027 393.181 56.6027ZM385.716 40.9989C383.195 40.9989 380.654 40.9989 378.133 40.9989H372.716C372.651 41.0075 372.585 41.0075 372.519 40.9989V17.3592H372.992H373.149C377.443 17.3592 381.717 17.3592 386.011 17.3592C387.429 17.3592 388.867 17.3592 390.285 17.4567H391.467L392.038 17.5542C392.411 17.6245 392.779 17.7157 393.141 17.8273C393.496 17.9238 393.845 18.041 394.185 18.1784C394.695 18.3835 395.188 18.6247 395.663 18.9001C395.976 19.0768 396.279 19.2722 396.569 19.4852C397.004 19.7959 397.419 20.1348 397.809 20.4994C398.184 20.8895 398.538 21.2796 398.873 21.6892C399.208 22.0988 399.287 22.2549 399.484 22.5474C401.007 24.9868 401.588 27.8897 401.118 30.7199C400.134 36.9614 396.234 40.6283 389.832 40.8624C388.473 40.9794 387.094 41.0184 385.716 41.0184V40.9989Z" fill="white"/>
<path d="M558.946 65.1652H579.135C578.997 65.4968 578.899 65.7504 578.78 65.9844C576.249 71.8826 572.216 77.0299 567.076 80.9236C561.936 84.8174 555.863 87.3246 549.452 88.2003C541.013 89.7436 532.316 89.1328 524.182 86.4254C518.991 84.6747 514.252 81.8158 510.301 78.051C506.349 74.2862 503.281 69.7074 501.314 64.6386C498.24 57.2327 496.92 49.2278 497.456 41.2382C497.992 33.2487 500.37 25.487 504.407 18.549C507.248 13.7991 511.129 9.74178 515.766 6.67646C520.402 3.61114 525.675 1.61612 531.194 0.83868C539.538 -0.710921 548.143 -0.147321 556.208 2.4771C560.893 4.01436 565.221 6.46008 568.941 9.67157C572.661 12.8831 575.698 16.796 577.874 21.1821C578.544 22.4499 579.056 23.7762 579.687 25.2001H560.226C559.976 25.2171 559.725 25.1705 559.497 25.0647C559.27 24.9589 559.073 24.7974 558.926 24.5954C557.057 22.2474 554.708 20.3163 552.034 18.9282C549.359 17.5402 546.419 16.7264 543.406 16.54C538.873 16.016 534.279 16.6332 530.051 18.3344C527.196 19.5738 524.63 21.3825 522.512 23.6476C520.394 25.9128 518.77 28.5859 517.741 31.5001C516.202 35.2191 515.361 39.185 515.259 43.2029C514.841 50.8799 517.202 58.4528 521.917 64.5606C523.653 66.7277 525.805 68.5328 528.249 69.8719C530.693 71.211 533.381 72.0575 536.157 72.3625C541.001 73.1459 545.969 72.5925 550.516 70.7631C553.434 69.594 556.051 67.7949 558.178 65.4968C558.381 65.2923 558.656 65.1734 558.946 65.1652Z" fill="white"/>
<path d="M237.205 70.412C237.047 70.7046 236.87 70.9776 236.633 71.4262H275.396V87.4006H210.516C209.176 87.4006 208.842 86.8155 209.511 85.6647L247.644 18.3344C247.801 18.0419 247.959 17.7493 248.175 17.3007H203.721C203.898 16.9301 203.996 16.696 204.114 16.501C206.833 11.7418 209.57 6.98271 212.288 2.20405C212.406 1.95248 212.601 1.7438 212.844 1.60736C213.088 1.47091 213.369 1.41353 213.647 1.44334H274.707C275.947 1.44334 276.302 2.06751 275.672 3.14027L237.205 70.412Z" fill="white"/>
<path d="M209.354 71.4262C209.196 71.7188 209.117 71.9529 208.999 72.1674C206.281 77.0046 203.563 81.8223 200.884 86.6789C200.785 86.9054 200.614 87.094 200.398 87.2169C200.181 87.3399 199.931 87.3906 199.683 87.3616H138.269C137.107 87.3616 136.753 86.7374 137.343 85.6842L175.555 18.3344L176.067 17.3397H140.731V1.48235H202.558C203.957 1.48235 204.292 2.04801 203.622 3.23779C190.78 25.6292 177.938 48.0206 165.096 70.412C164.919 70.6851 164.761 70.9777 164.505 71.4458L209.354 71.4262Z" fill="white"/>
<path d="M502.161 87.1275H501.393H483.666C483.422 87.1574 483.176 87.096 482.976 86.9552C482.775 86.8145 482.635 86.6046 482.583 86.3669L461.902 37.332C461.744 36.9224 461.527 36.5323 461.33 36.1227H461.114L457.175 45.602L448.547 66.1405C445.685 72.9281 442.816 79.7028 439.94 86.4644C439.763 86.8935 439.586 87.1861 438.995 87.1861H420.756H420.165L421.583 84.1238C434.451 56.5312 447.333 28.9255 460.227 1.30682C460.424 0.877713 460.523 0.468099 461.193 0.468099C461.862 0.468099 462.02 0.799697 462.217 1.24831C475.177 29.023 488.131 56.7847 501.078 84.5334C501.452 85.3136 501.728 86.1913 502.161 87.1275Z" fill="white"/>
<path d="M644.98 1.57988V17.6323H621.345V87.4006H603.618V17.7103H602.574C595.424 17.7103 588.254 17.7103 581.085 17.7103C580.297 17.7103 580.12 17.4957 580.14 16.7545C580.14 11.9954 580.14 7.22325 580.14 2.43809C580.14 1.79444 580.277 1.56039 580.986 1.56039C602.127 1.56039 623.255 1.56039 644.37 1.56039L644.98 1.57988Z" fill="white"/>
<path d="M132.045 71.5628H73.1724V87.3226H132.045V71.5628Z" fill="white"/>
<path d="M132.065 1.67741H73.1526V17.4372H132.065V1.67741Z" fill="white"/>
<path d="M131.769 37.098H73.192V52.8578H131.769V37.098Z" fill="white"/>
<path d="M345.712 1.67741H286.82V17.2032H345.712V1.67741Z" fill="white"/>
<path d="M345.712 71.9919H286.82V87.3031H345.712V71.9919Z" fill="white"/>
<path d="M345.397 37.4295H286.82V52.5847H345.397V37.4295Z" fill="white"/>
<path d="M390.285 17.4177C388.867 17.4177 387.429 17.4177 386.011 17.3202C387.488 17.3202 388.867 17.3592 390.285 17.4177Z" fill="white"/>
<path d="M394.185 18.2369C394.693 18.4459 395.186 18.687 395.663 18.9586C395.188 18.6832 394.695 18.442 394.185 18.2369Z" fill="white"/>
</g>
</g>
<defs>
<clipPath id="clip0_6007_3950">
<rect width="645" height="89" fill="white"/>
</clipPath>
<clipPath id="clip1_6007_3950">
<rect width="645" height="89" fill="white"/>
</clipPath>
</defs>
</svg>
