<svg width="162" height="184" viewBox="0 0 162 184" fill="none" xmlns="http://www.w3.org/2000/svg">
<g clip-path="url(#clip0_55_2114)">
<g clip-path="url(#clip1_55_2114)">
<path d="M162 49.7375V138.504C161.999 138.528 161.993 138.552 161.981 138.573C161.968 138.593 161.951 138.611 161.93 138.623C161.91 138.636 161.886 138.643 161.862 138.644C161.838 138.644 161.814 138.639 161.792 138.628L156.402 135.538L156.242 135.447L139.237 125.694C139.215 125.682 139.19 125.675 139.165 125.675C139.14 125.675 139.115 125.682 139.093 125.694L127.104 132.569L121.337 135.877L89.5981 154.079C89.5762 154.091 89.5579 154.11 89.5451 154.131C89.5323 154.153 89.5255 154.178 89.5253 154.203V173.647C89.5264 173.671 89.5334 173.694 89.5457 173.715C89.558 173.735 89.5753 173.752 89.5959 173.765C89.6165 173.777 89.6398 173.784 89.6638 173.785C89.6878 173.786 89.7117 173.782 89.7334 173.771L121.329 155.65L127.096 152.342L150.529 138.905C150.551 138.893 150.576 138.887 150.601 138.887C150.626 138.887 150.651 138.893 150.673 138.905L156.233 142.095V142.248L127.098 158.96L121.331 162.267L89.5253 180.508L83.975 183.692C83.9533 183.702 83.9293 183.707 83.9053 183.706C83.8814 183.705 83.858 183.698 83.8374 183.685C83.8168 183.673 83.7996 183.656 83.7873 183.635C83.775 183.615 83.7679 183.592 83.7668 183.568V150.908C83.7673 150.883 83.7742 150.858 83.787 150.836C83.7997 150.815 83.8179 150.796 83.8397 150.784L89.5336 147.52L121.345 129.274L127.112 125.967L133.408 122.357L139.102 119.093C139.123 119.08 139.148 119.074 139.173 119.074C139.199 119.074 139.223 119.08 139.245 119.093L144.939 122.359L156.033 128.722C156.055 128.733 156.079 128.738 156.103 128.737C156.128 128.737 156.151 128.729 156.172 128.717C156.193 128.705 156.21 128.687 156.222 128.667C156.234 128.646 156.241 128.622 156.242 128.598V59.6602C156.241 59.6362 156.234 59.6127 156.222 59.5919C156.21 59.5711 156.193 59.5537 156.172 59.5413C156.151 59.529 156.128 59.5219 156.103 59.521C156.079 59.5202 156.055 59.5254 156.033 59.5362L127.106 76.1216L121.339 79.4291L89.6002 97.6332C89.5779 97.6454 89.5594 97.6634 89.5466 97.6853C89.5338 97.7071 89.5271 97.732 89.5273 97.7572V134.078C89.5279 134.102 89.5346 134.126 89.5468 134.147C89.559 134.168 89.5762 134.185 89.597 134.197C89.6178 134.21 89.6414 134.217 89.6656 134.218C89.6898 134.218 89.7138 134.213 89.7354 134.202L121.26 116.122C121.282 116.11 121.3 116.092 121.312 116.07C121.325 116.048 121.331 116.023 121.331 115.998V86.1476C121.331 86.1224 121.338 86.0977 121.351 86.076C121.364 86.0542 121.382 86.0362 121.404 86.0236L126.881 82.8835C126.903 82.8727 126.927 82.8674 126.951 82.8683C126.975 82.8692 126.999 82.8762 127.02 82.8886C127.04 82.901 127.058 82.9184 127.07 82.9392C127.082 82.96 127.089 82.9835 127.089 83.0075V119.261C127.089 119.285 127.083 119.31 127.07 119.332C127.058 119.353 127.04 119.372 127.019 119.385L121.323 122.651L89.5253 140.894L83.975 144.078C83.9533 144.088 83.9293 144.093 83.9053 144.091C83.8814 144.09 83.858 144.083 83.8374 144.071C83.8168 144.059 83.7996 144.042 83.7873 144.021C83.775 144.001 83.7679 143.977 83.7668 143.954V94.4475C83.7675 94.4224 83.7744 94.398 83.7872 94.3763C83.7999 94.3546 83.818 94.3364 83.8397 94.3235L86.6866 92.6925L89.5336 91.0573L121.345 72.814L125.462 70.4532L156.25 52.797L161.8 49.6135C161.821 49.6045 161.845 49.6007 161.868 49.6025C161.891 49.6043 161.913 49.6115 161.933 49.6237C161.952 49.6359 161.969 49.6526 161.98 49.6724C161.992 49.6922 161.999 49.7146 162 49.7375Z" fill="white"/>
<path d="M54.9496 61.19C54.928 61.2032 54.9032 61.2101 54.8779 61.2101C54.8526 61.2101 54.8277 61.2032 54.8061 61.19L49.3286 58.0478C49.3065 58.0353 49.2881 58.0174 49.2754 57.9956C49.2626 57.9738 49.256 57.949 49.256 57.9238C49.256 57.8986 49.2626 57.8739 49.2754 57.8521C49.2881 57.8303 49.3065 57.8122 49.3286 57.7998L80.9345 39.6743C80.9564 39.6621 80.9811 39.6558 81.0062 39.6558C81.0313 39.6558 81.0561 39.6621 81.0781 39.6743L86.774 42.9405L118.586 61.1839L124.136 64.3674C124.158 64.3798 124.177 64.3979 124.189 64.4197C124.202 64.4414 124.209 64.4662 124.209 64.4914C124.209 64.5166 124.202 64.5413 124.189 64.5631C124.177 64.5849 124.158 64.6029 124.136 64.6154L80.976 89.3684C80.9537 89.3806 80.9286 89.3869 80.9032 89.3869C80.8777 89.3869 80.8528 89.3806 80.8304 89.3684L77.9834 87.7354L75.1364 86.1022L43.3246 67.8527L39.2082 65.4939L8.42013 47.8357L2.86982 44.6522C2.84775 44.6397 2.82944 44.6217 2.81668 44.5999C2.80391 44.5781 2.79716 44.5533 2.79716 44.5281C2.79716 44.5029 2.80391 44.4782 2.81668 44.4564C2.82944 44.4346 2.84775 44.4166 2.86982 44.4041L80.2623 0.0207013C80.2839 0.00988536 80.3079 0.00466869 80.3321 0.0055605C80.3563 0.0064523 80.3799 0.0134204 80.4007 0.0257988C80.4215 0.0381771 80.4387 0.0555747 80.4509 0.0763692C80.4631 0.0971637 80.4698 0.120652 80.4704 0.144705V26.014C80.4702 26.0391 80.4766 26.0637 80.489 26.0855C80.5014 26.1072 80.5194 26.1254 80.5411 26.1381L92.5304 33.0137L98.2971 36.3212L130.036 54.5232C130.058 54.5364 130.083 54.5433 130.108 54.5433C130.133 54.5433 130.158 54.5364 130.18 54.5232L147.13 44.8072C147.153 44.7948 147.171 44.7767 147.184 44.7549C147.196 44.7331 147.203 44.7084 147.203 44.6832C147.203 44.658 147.196 44.6332 147.184 44.6114C147.171 44.5897 147.153 44.5716 147.13 44.5592L115.539 26.4357L109.774 23.1282L86.3391 9.69116C86.3174 9.67847 86.2994 9.66034 86.2869 9.63857C86.2745 9.6168 86.2682 9.59218 86.2683 9.56715V3.18973L86.4016 3.11327L115.537 19.8227L121.302 23.1302L153.116 41.3756L158.664 44.5571C158.686 44.5695 158.704 44.5876 158.717 44.6094C158.73 44.6312 158.737 44.6559 158.737 44.6811C158.737 44.7063 158.73 44.7311 158.717 44.7529C158.704 44.7747 158.686 44.7927 158.664 44.8051L130.182 61.1363C130.16 61.1495 130.135 61.1564 130.11 61.1564C130.085 61.1564 130.06 61.1495 130.038 61.1363L124.344 57.87L92.5325 39.6267L86.7658 36.3192L80.4704 32.7098L74.7764 29.4436C74.7547 29.4309 74.7368 29.4127 74.7244 29.391C74.712 29.3692 74.7055 29.3446 74.7057 29.3195V10.0633C74.7051 10.0392 74.6984 10.0157 74.6863 9.99493C74.6741 9.97414 74.6567 9.95674 74.636 9.94436C74.6152 9.93198 74.5917 9.92502 74.5675 9.92413C74.5433 9.92323 74.5192 9.92845 74.4976 9.93927L14.3971 44.4041C14.3751 44.4166 14.3568 44.4346 14.344 44.4564C14.3312 44.4782 14.3245 44.5029 14.3245 44.5281C14.3245 44.5533 14.3312 44.5781 14.344 44.5999C14.3568 44.6217 14.3751 44.6397 14.3971 44.6522L43.3246 61.2397L49.0935 64.5472L80.8325 82.7512C80.8544 82.7633 80.8792 82.7698 80.9043 82.7698C80.9294 82.7698 80.9541 82.7633 80.976 82.7512L112.644 64.5907C112.666 64.5782 112.685 64.5602 112.698 64.5384C112.71 64.5166 112.717 64.4918 112.717 64.4666C112.717 64.4414 112.71 64.4166 112.698 64.3948C112.685 64.373 112.666 64.355 112.644 64.3425L81.1196 46.2626C81.0977 46.2504 81.073 46.244 81.0479 46.244C81.0228 46.244 80.998 46.2504 80.976 46.2626" fill="white"/>
<path d="M77.7712 183.983L0.378796 139.6C0.356726 139.588 0.338317 139.57 0.325548 139.548C0.31278 139.526 0.306038 139.501 0.306038 139.476C0.306038 139.451 0.31278 139.426 0.325548 139.404C0.338317 139.383 0.356726 139.364 0.378796 139.352L5.76886 136.251L5.92911 136.16L22.9339 126.407C22.9556 126.394 22.9736 126.376 22.986 126.354C22.9984 126.333 23.0048 126.308 23.0046 126.283V69.5189C23.0048 69.4939 22.9984 69.4692 22.986 69.4474C22.9736 69.4257 22.9556 69.4075 22.9339 69.3949L5.98317 59.6789C5.96153 59.6681 5.93756 59.6628 5.91335 59.6637C5.88915 59.6646 5.86553 59.6716 5.84476 59.684C5.82399 59.6964 5.80675 59.7138 5.79456 59.7346C5.78238 59.7554 5.77563 59.7789 5.77505 59.8029V129.535C5.77483 129.56 5.76801 129.585 5.75524 129.606C5.74246 129.628 5.72425 129.646 5.7023 129.659L0.14152 132.849L0.00830078 132.772V49.8761C0.00940267 49.8522 0.0164124 49.8291 0.0287258 49.8086C0.0410391 49.7881 0.0583235 49.7709 0.0789245 49.7586C0.0995254 49.7464 0.122808 49.7394 0.146804 49.7382C0.170801 49.7371 0.194718 49.7418 0.216412 49.752L28.6986 66.0832C28.7202 66.096 28.738 66.1142 28.7504 66.1359C28.7628 66.1577 28.7693 66.1822 28.7693 66.2072V123.056V129.586C28.7693 129.611 28.7628 129.636 28.7504 129.658C28.738 129.679 28.7202 129.698 28.6986 129.71L23.0046 132.977L11.9102 139.34C11.8881 139.352 11.8698 139.37 11.857 139.392C11.8443 139.414 11.8375 139.438 11.8375 139.464C11.8375 139.489 11.8443 139.514 11.857 139.535C11.8698 139.557 11.8881 139.575 11.9102 139.588L72.0044 174.061C72.0261 174.071 72.05 174.076 72.074 174.075C72.098 174.073 72.1213 174.066 72.1419 174.054C72.1625 174.042 72.1798 174.025 72.1921 174.004C72.2044 173.984 72.2114 173.961 72.2125 173.937V97.7428C72.2123 97.7176 72.2055 97.6929 72.1927 97.6712C72.1799 97.6494 72.1616 97.6314 72.1397 97.6188L40.4714 79.4582C40.4498 79.4474 40.4257 79.4421 40.4015 79.443C40.3773 79.4439 40.3538 79.4508 40.333 79.4632C40.3122 79.4756 40.2949 79.493 40.2827 79.5138C40.2705 79.5346 40.2639 79.5582 40.2633 79.5822V115.74C40.2633 115.765 40.2698 115.79 40.2822 115.811C40.2946 115.833 40.3124 115.851 40.334 115.864L66.3604 130.79C66.3821 130.802 66.4001 130.82 66.4125 130.842C66.425 130.864 66.4313 130.888 66.4311 130.914V137.196C66.4306 137.22 66.4239 137.243 66.4117 137.264C66.3996 137.285 66.3823 137.302 66.3615 137.315C66.3408 137.327 66.3171 137.334 66.2929 137.335C66.2687 137.336 66.2447 137.331 66.223 137.32L34.6173 119.194C34.5954 119.182 34.5773 119.164 34.5645 119.142C34.5518 119.12 34.5448 119.096 34.5444 119.07V69.6842C34.545 69.6602 34.5516 69.6367 34.5638 69.6159C34.576 69.5951 34.5933 69.5777 34.6141 69.5653C34.6349 69.553 34.6584 69.546 34.6826 69.5452C34.7068 69.5443 34.7309 69.5495 34.7525 69.5603L77.9127 94.3133C77.935 94.3255 77.9535 94.3435 77.9663 94.3653C77.9791 94.3872 77.9857 94.412 77.9855 94.4373V183.857C77.9858 183.883 77.9796 183.907 77.9672 183.929C77.9548 183.951 77.9369 183.969 77.9152 183.982C77.8934 183.995 77.8686 184.002 77.8433 184.002C77.818 184.002 77.7932 183.996 77.7712 183.983Z" fill="white"/>
</g>
</g>
<defs>
<clipPath id="clip0_55_2114">
<rect width="162" height="184" fill="white"/>
</clipPath>
<clipPath id="clip1_55_2114">
<rect width="162" height="184" fill="white"/>
</clipPath>
</defs>
</svg>
