<?xml version="1.0" encoding="UTF-8"?>
<svg id="Layer_2" data-name="Layer 2" xmlns="http://www.w3.org/2000/svg" xmlns:xlink="http://www.w3.org/1999/xlink" viewBox="0 0 932.28 1066">
  <defs>
    <style>
      .cls-1 {
        fill: url(#linear-gradient);
      }

      .cls-1, .cls-2, .cls-3 {
        stroke-width: 0px;
      }

      .cls-2 {
        fill: url(#linear-gradient-2);
      }

      .cls-3 {
        fill: url(#linear-gradient-3);
      }
    </style>
    <linearGradient id="linear-gradient" x1="481.97" y1="675.82" x2="932.28" y2="675.82" gradientUnits="userSpaceOnUse">
      <stop offset="0" stop-color="#00a9ee"/>
      <stop offset="1" stop-color="#00378a"/>
    </linearGradient>
    <linearGradient id="linear-gradient-2" x1="16.1" y1="258.92" x2="913.55" y2="258.92" xlink:href="#linear-gradient"/>
    <linearGradient id="linear-gradient-3" x1="0" y1="677.06" x2="448.8" y2="677.06" xlink:href="#linear-gradient"/>
  </defs>
  <g id="BACKGROUND">
    <g>
      <path class="cls-1" d="M932.28,288.15v514.28c0,.64-.69,1.04-1.24.72l-31.02-17.91-.92-.53-97.86-56.5c-.26-.15-.57-.15-.83,0l-68.99,39.83-33.18,19.16-182.66,105.45c-.26.15-.41.42-.41.72v112.63c0,.64.69,1.04,1.24.72l181.83-104.98,33.18-19.16,134.86-77.86c.26-.15.57-.15.83,0l32,18.48v.89l-167.68,96.82-33.18,19.16-183.07,105.7-31.94,18.44c-.55.32-1.24-.08-1.24-.72v-189.27c0-.3.16-.57.41-.72l32.77-18.92,183.07-105.69,33.18-19.16,36.22-20.91h0l32.76-18.92c.26-.15.57-.15.83,0l32.77,18.92,63.85,36.86c.55.32,1.24-.08,1.24-.72v-399.32c0-.64-.69-1.04-1.24-.72l-166.44,96.09-33.18,19.16-182.66,105.45c-.26.15-.41.42-.41.72v210.43c0,.64.69,1.04,1.24.72l181.41-104.74c.26-.15.41-.42.41-.72v-172.94c0-.3.16-.57.41-.72l31.53-18.2c.55-.32,1.24.08,1.24.72v210.03c0,.3-.16.57-.41.72l-32.77,18.92-183.07,105.69-31.94,18.44c-.55.32-1.24-.08-1.24-.72v-286.8c0-.3.16-.57.41-.72l16.39-9.46,16.39-9.47,183.07-105.69,23.69-13.67,177.18-102.3,31.94-18.44c.55-.32,1.24.08,1.24.72Z"/>
      <path class="cls-2" d="M316.22,354.48c-.26.15-.57.15-.83,0l-31.52-18.2c-.55-.32-.55-1.12,0-1.44l181.89-105.01c.26-.15.57-.15.83,0l32.77,18.92,183.07,105.7,31.94,18.44c.55.32.55,1.12,0,1.44l-248.38,143.4c-.26.15-.57.15-.83,0l-16.38-9.46-16.39-9.46-183.07-105.7-23.68-13.68-177.19-102.29-31.94-18.44c-.55-.32-.55-1.12,0-1.44L461.89.11c.55-.32,1.24.08,1.24.72v35.82s0,1.06,0,1.06v113c0,.3.16.57.42.72l68.99,39.83,33.19,19.16,182.66,105.46c.26.15.57.15.83,0l97.54-56.32c.55-.32.55-1.12,0-1.44l-181.83-104.98-33.18-19.16-134.86-77.86c-.26-.15-.41-.42-.41-.72V18.46s.77-.44.77-.44l167.69,96.81,33.18,19.16,183.08,105.69,31.94,18.44c.55.32.55,1.12,0,1.44l-163.91,94.64c-.26.15-.57.15-.83,0l-32.77-18.92-183.07-105.7-33.19-19.16-36.22-20.91h0s-32.76-18.92-32.76-18.92c-.26-.15-.41-.42-.41-.72v-37.84s0-73.73,0-73.73c0-.64-.69-1.04-1.24-.72L82.89,257.25c-.55.32-.55,1.12,0,1.44l166.44,96.1,33.19,19.16,182.66,105.46c.26.15.57.15.83,0l182.24-105.22c.55-.32.55-1.12,0-1.44l-181.42-104.74c-.26-.15-.57-.15-.83,0"/>
      <path class="cls-3" d="M447.55,1065.89L2.17,808.75c-.55-.32-.55-1.12,0-1.44l31.02-17.91.92-.53,97.86-56.5c.26-.15.41-.42.41-.72v-79.66s0-38.32,0-38.32v-210.91c0-.3-.16-.57-.41-.72l-97.54-56.32c-.55-.32-1.24.08-1.24.72v209.96s0,38.32,0,38.32v155.72c0,.3-.16.57-.41.72L.77,769.62l-.77-.44v-193.63s0-38.32,0-38.32v-211.4s0-36.88,0-36.88c0-.64.69-1.04,1.24-.72l163.91,94.64c.26.15.41.42.41.72v37.84s0,211.39,0,211.39v38.32s0,41.83,0,41.83h0s0,37.84,0,37.84c0,.3-.16.57-.41.72l-32.77,18.92-63.85,36.86c-.55.32-.55,1.12,0,1.44l345.82,199.66c.55.32,1.24-.08,1.24-.72v-192.19s0-38.32,0-38.32v-210.91c0-.3-.16-.57-.41-.72l-182.24-105.22c-.55-.32-1.24.08-1.24.72v209.48c0,.3.16.57.42.72l149.77,86.47c.26.15.41.42.41.72v36.4c0,.64-.69,1.04-1.25.72l-181.89-105.01c-.26-.15-.41-.42-.41-.72v-37.84s0-211.39,0-211.39v-36.88c0-.64.69-1.04,1.25-.72l248.38,143.4c.26.15.41.42.41.72v18.92s0,18.92,0,18.92v211.39s0,27.35,0,27.35v204.6s0,36.88,0,36.88c0,.64-.69,1.04-1.24.72Z"/>
    </g>
  </g>
</svg>