<svg width="204" height="28" viewBox="0 0 204 28" fill="none" xmlns="http://www.w3.org/2000/svg">
<g clip-path="url(#clip0_840_5535)">
<path d="M20.5202 0.507627V5.51516H13.0628V27.441H7.43669V5.51758H7.08687C4.83758 5.51758 2.58895 5.51758 0.340979 5.51758C0.226428 5.50828 0.112557 5.49212 0 5.46919V0.516338C0.117427 0.516338 0.234852 0.510046 0.352279 0.510046C6.96256 0.507788 13.573 0.507788 20.1836 0.510046L20.5202 0.507627ZM124.324 17.8649C126.874 21.0663 129.43 24.2783 132.025 27.5349H131.707C129.611 27.5349 127.517 27.5349 125.421 27.5397C125.227 27.5397 125.112 27.4773 124.995 27.3326C122.673 24.4317 120.348 21.5323 118.021 18.6344C117.98 18.5768 117.943 18.5167 117.91 18.4543C117.881 18.4722 117.851 18.4877 117.822 18.5027V27.4434H112.327V0.477622C112.42 0.472782 112.499 0.46407 112.578 0.46407C116.045 0.46407 119.511 0.45052 122.978 0.470846C124.864 0.479557 126.675 0.837686 128.324 1.7877C130.53 3.06245 131.812 4.99345 132.301 7.42487C132.8 9.90517 132.371 12.2253 130.876 14.3145C130.305 15.1131 129.611 15.8095 128.771 16.3278C127.592 17.0567 126.271 17.5347 124.893 17.7313C124.715 17.756 124.537 17.7826 124.36 17.8116C124.351 17.8116 124.349 17.8232 124.324 17.8649ZM123.298 12.8801C125.322 12.8046 126.56 11.6498 126.869 9.68593C127.018 8.79719 126.833 7.88569 126.35 7.12094C126.29 7.02672 126.224 6.93606 126.154 6.84944C126.051 6.71657 125.939 6.59167 125.817 6.47582C125.695 6.36 125.565 6.25217 125.429 6.15302C125.336 6.08623 125.241 6.02622 125.142 5.96863C124.992 5.8838 124.836 5.80863 124.677 5.74359C124.568 5.70149 124.457 5.66374 124.342 5.63034C124.228 5.59718 124.112 5.56972 123.995 5.54807C123.934 5.53694 123.873 5.52581 123.812 5.51903C123.69 5.50355 123.566 5.49242 123.439 5.48806C122.989 5.47015 122.538 5.45902 122.088 5.45225C120.733 5.43241 119.378 5.45225 118.023 5.44547C118.007 5.44518 117.99 5.44599 117.974 5.44789C117.925 5.45225 117.872 5.46338 117.823 5.46773H117.82V12.8868H117.823C117.845 12.8931 117.865 12.898 117.884 12.9023C117.901 12.907 117.919 12.9099 117.938 12.911C118.491 12.9091 119.044 12.9106 119.598 12.9154C120.399 12.9202 121.199 12.9222 122 12.911C122.434 12.9062 122.868 12.8951 123.299 12.8796L123.298 12.8801ZM176.542 20.6273C175.869 21.3702 175.04 21.8996 174.121 22.2868C172.662 22.9009 171.131 22.9963 169.577 22.7853C167.759 22.5385 166.219 21.7641 165.074 20.3335C163.495 18.3648 162.928 16.0694 162.967 13.6133C162.987 12.3385 163.274 11.1015 163.753 9.91387C164.512 8.04288 165.722 6.57455 167.648 5.76924C168.999 5.20446 170.419 5.07089 171.87 5.2064C173.859 5.39127 175.526 6.18545 176.783 7.74041C176.899 7.88269 177.013 7.92916 177.192 7.92916C179.132 7.92286 181.073 7.9248 183.016 7.9248H183.319C183.12 7.48004 182.96 7.05754 182.75 6.65924C181.253 3.82711 179.016 1.81384 175.923 0.779613C173.334 -0.085708 170.681 -0.188309 168.009 0.26129C164.351 0.873016 161.471 2.69029 159.536 5.83361C157.727 8.7727 157.083 11.9872 157.354 15.3971C157.481 17.096 157.887 18.7632 158.557 20.3335C159.974 23.6303 162.318 26.0017 165.794 27.1874C168.398 28.0774 171.083 28.195 173.786 27.7502C178.125 27.0359 181.212 24.6824 183.059 20.7585C183.096 20.6825 183.127 20.6046 183.17 20.5024C181.013 20.5024 178.899 20.5024 176.787 20.5092C176.693 20.5161 176.605 20.5582 176.542 20.6268V20.6273ZM87.2254 0.994976C87.4219 0.656203 87.3089 0.462619 86.9158 0.462619C80.4683 0.462619 74.0205 0.461166 67.5724 0.458262C67.3646 0.458262 67.2471 0.520693 67.1454 0.700243C66.2872 2.2002 65.4253 3.69821 64.5596 5.1943C64.5213 5.25866 64.4942 5.3298 64.4377 5.44547H78.5098C78.4375 5.58582 78.3904 5.67923 78.3383 5.77021C74.3124 12.8234 70.2878 19.8786 66.2645 26.9357C66.0571 27.2984 66.1634 27.48 66.5834 27.4807H87.1055V22.4755H74.842C74.9211 22.3352 74.9732 22.2442 75.0253 22.1527C79.0925 15.1011 83.1592 8.04853 87.2254 0.994976ZM52.0298 22.4731C52.1109 22.3279 52.163 22.2374 52.217 22.1465C56.2786 15.101 60.3402 8.05644 64.4019 1.01288C64.6166 0.638781 64.5104 0.463101 64.0702 0.463101H44.5155V5.45079H55.6926C55.6248 5.57953 55.5796 5.67293 55.528 5.7644C51.5012 12.8273 47.4723 19.8904 43.4415 26.9536C43.2538 27.2827 43.3648 27.4807 43.7363 27.4807C50.2113 27.4807 56.6854 27.4821 63.1588 27.485C63.344 27.485 63.4458 27.4366 63.5381 27.2716C64.3876 25.7457 65.2455 24.2285 66.1018 22.7069C66.1402 22.6401 66.1692 22.5689 66.2168 22.4731H52.0298ZM158.478 26.5829C154.383 17.8487 150.287 9.11405 146.189 0.378892C146.123 0.238544 146.071 0.13159 145.865 0.129655C145.651 0.129655 145.617 0.263226 145.556 0.394379C141.48 9.08146 137.406 17.7677 133.334 26.4532C133.186 26.7668 133.042 27.078 132.886 27.4139C132.968 27.4207 133.02 27.4274 133.071 27.4274C134.993 27.4274 136.917 27.4274 138.84 27.4342C139.029 27.4342 139.085 27.3427 139.142 27.2048C140.048 25.0754 140.954 22.945 141.861 20.8136C142.769 18.6716 143.674 16.5278 144.576 14.3823C144.996 13.3882 145.419 12.3932 145.843 11.3972C145.865 11.3972 145.892 11.3904 145.915 11.388C145.977 11.5129 146.042 11.6348 146.096 11.7641C148.275 16.9069 150.454 22.0501 152.631 27.1937C152.7 27.3631 152.778 27.4357 152.974 27.4357C154.841 27.4265 156.712 27.4313 158.582 27.4289C158.657 27.4289 158.73 27.4221 158.824 27.4177C158.703 27.1182 158.601 26.8447 158.478 26.5829ZM203.798 0.511015C197.116 0.508757 190.434 0.506498 183.752 0.504239C183.53 0.504239 183.483 0.57296 183.483 0.777675C183.492 2.27924 183.492 3.77952 183.483 5.2785C183.481 5.50984 183.537 5.57856 183.781 5.57856C186.049 5.56985 188.316 5.57227 190.581 5.57227H190.914V27.4908H196.551V5.56743H204.001V0.518757C203.921 0.514402 203.86 0.510046 203.799 0.510046L203.798 0.511015ZM23.1443 22.5109V27.4695H41.7656V22.5109H23.1443ZM23.1375 0.529888V5.49096H41.7695V0.529888H23.1375ZM23.1468 11.6682V16.6293H41.6727V11.6682H23.1468ZM90.7148 0.525534V5.40821H109.34V0.525534H90.7148ZM90.7192 22.6469V27.4652H109.345V22.6469H90.7192ZM90.7167 11.7752V16.5403H109.247V11.7737L90.7167 11.7752ZM117.822 5.46483C117.871 5.46048 117.923 5.44934 117.973 5.44499C117.924 5.44934 117.872 5.45805 117.822 5.46289V5.46483ZM122.09 5.44934C122.54 5.45612 122.991 5.46725 123.441 5.48516C123.567 5.48951 123.691 5.50064 123.814 5.51613C123.691 5.49811 123.567 5.48696 123.443 5.48274C122.994 5.46499 122.543 5.45386 122.09 5.44934ZM125.144 5.96621C124.994 5.88109 124.839 5.80591 124.679 5.74117C124.838 5.80621 124.994 5.88138 125.144 5.96621ZM125.819 6.4734C125.698 6.35632 125.568 6.24841 125.431 6.1506C125.567 6.24959 125.697 6.35726 125.819 6.47292V6.4734Z" fill="url(#paint0_linear_840_5535)"/>
</g>
<defs>
<linearGradient id="paint0_linear_840_5535" x1="73.3705" y1="-41.2088" x2="132.995" y2="63.6351" gradientUnits="userSpaceOnUse">
<stop stop-color="#00A9EE"/>
<stop offset="1" stop-color="#00378A"/>
</linearGradient>
<clipPath id="clip0_840_5535">
<rect width="204" height="28" fill="white"/>
</clipPath>
</defs>
</svg>
