<svg width="50" height="50" viewBox="0 0 50 50" fill="none" xmlns="http://www.w3.org/2000/svg">
<g clip-path="url(#clip0_4_189)">
<path d="M38.3286 20.2167C39.3193 19.5933 40.0283 18.6347 40.333 17.4978C40.6532 16.3024 40.4889 15.0539 39.8701 13.9822C38.6233 11.8226 35.8882 11.0471 33.7002 12.2001L29.5396 4.99365C28.9893 4.04052 28.0976 3.35791 27.0287 3.07148C25.9598 2.78506 24.8461 2.93037 23.8932 3.48076C22.94 4.03105 22.2574 4.92275 21.971 5.9915C21.7552 6.79687 21.7848 7.62763 22.0478 8.39599C20.0715 13.3763 15.8889 18.4553 10.2102 22.7882C10.1221 22.7292 10.0247 22.6836 9.92022 22.6556C9.67012 22.5885 9.40352 22.6236 9.1792 22.7531L3.87002 25.8185C2.08389 26.8497 0.804397 28.5216 0.267288 30.5261C-0.269822 32.5306 0.00224863 34.6183 1.0336 36.4044C2.46739 38.8878 5.07735 40.2776 7.75772 40.2776C9.07149 40.2776 10.4022 39.9436 11.6194 39.2409L11.9233 39.0655L17.7784 46.71C18.1829 47.2381 18.7469 47.5489 19.4098 47.609C19.4851 47.6158 19.5596 47.6191 19.6334 47.6191C20.2094 47.6191 20.7388 47.4133 21.1756 47.017L22.7881 45.5538C23.6854 44.7395 23.8086 43.3982 23.0747 42.4341L17.5693 35.2008C24.1084 32.4968 30.5387 31.4372 35.7983 32.2103C36.5951 33.1221 37.7428 33.6226 38.9165 33.6225C39.6173 33.6225 40.3271 33.4443 40.9764 33.0695C42.9502 31.93 43.6289 29.3971 42.4893 27.4231L38.3286 20.2167ZM38.1786 14.9588C38.5365 15.5787 38.6316 16.3009 38.4463 16.9923C38.2768 17.6252 37.8903 18.1623 37.3508 18.5233L34.6777 13.8935C35.9312 13.2774 37.4701 13.7316 38.1786 14.9588ZM7.7545 38.3249C5.74991 38.3248 3.79737 37.2852 2.72491 35.4278C1.95449 34.0935 1.75166 32.5322 2.15381 31.0316C2.55586 29.5311 3.51211 28.2804 4.84649 27.51L9.30997 24.9329L15.1063 34.9725L10.6428 37.5495C9.73233 38.0752 8.73741 38.325 7.7545 38.3249ZM21.4755 44.1074L19.8631 45.5705C19.7778 45.6478 19.6996 45.6741 19.5855 45.6637C19.4708 45.6533 19.3989 45.6137 19.3289 45.5224L13.6291 38.0807L16.184 36.6056L21.5205 43.617C21.6359 43.7686 21.6165 43.9794 21.4755 44.1074ZM16.5233 33.5204L11.2761 24.4318C16.742 20.2849 20.9153 15.442 23.223 10.5866L34.4872 30.097C29.1285 29.6677 22.8476 30.8603 16.5233 33.5204ZM39.9997 31.3779C38.9583 31.9793 37.6225 31.621 37.0213 30.58L24.0716 8.15039C23.4705 7.10918 23.8285 5.77314 24.8696 5.17207C25.2024 4.97998 25.573 4.88183 25.9498 4.88183C26.1406 4.88183 26.3332 4.90703 26.5232 4.95791C27.0881 5.10928 27.5587 5.46875 27.8481 5.97012L40.7977 28.3996C41.3988 29.4408 41.0408 30.7769 39.9997 31.3779ZM41.0617 13.2942C40.792 12.8271 40.9521 12.2299 41.4192 11.9603L45.3395 9.69687C45.8066 9.42715 46.4038 9.5873 46.6734 10.0543C46.9432 10.5214 46.7831 11.1187 46.316 11.3883L42.3957 13.6517C42.242 13.7404 42.074 13.7827 41.9084 13.7827C41.5708 13.7827 41.2426 13.6075 41.0617 13.2942ZM36.5422 7.00469L38.9297 2.86933C39.1993 2.40234 39.7965 2.24209 40.2637 2.51191C40.7308 2.78154 40.8908 3.37881 40.6211 3.8459L38.2336 7.98125C38.0527 8.29453 37.7244 8.46973 37.3869 8.46973C37.2213 8.46973 37.0534 8.42754 36.8996 8.33867C36.4324 8.06904 36.2725 7.47178 36.5422 7.00469ZM50.0005 19.3767C50.0005 19.916 49.5632 20.3532 49.0239 20.3532H44.2489C43.7097 20.3532 43.2724 19.916 43.2724 19.3767C43.2724 18.8373 43.7097 18.4001 44.2489 18.4001H49.0239C49.5632 18.4001 50.0005 18.8373 50.0005 19.3767Z" fill="url(#paint0_linear_4_189)"/>
</g>
<defs>
<linearGradient id="paint0_linear_4_189" x1="42.4799" y1="8.41599" x2="16.4193" y2="48.0655" gradientUnits="userSpaceOnUse">
<stop stop-color="#00A9EE"/>
<stop offset="1" stop-color="#00378A"/>
</linearGradient>
<clipPath id="clip0_4_189">
<rect width="50" height="50" fill="white"/>
</clipPath>
</defs>
</svg>
