<svg width="56" height="56" viewBox="0 0 56 56" fill="none" xmlns="http://www.w3.org/2000/svg">
<rect x="0.5" y="0.5" width="55" height="55" rx="27.5" fill="#F2F2F2"/>
<rect x="0.5" y="0.5" width="55" height="55" rx="27.5" stroke="url(#paint0_linear_1381_7783)"/>
<g clip-path="url(#clip0_1381_7783)">
<path d="M37.5961 24.5566C38.3094 24.1078 38.8198 23.4176 39.0392 22.599C39.2698 21.7384 39.1514 20.8394 38.7059 20.0678C37.8082 18.5129 35.8389 17.9545 34.2636 18.7847L31.2679 13.5961C30.8717 12.9098 30.2297 12.4183 29.4601 12.2121C28.6905 12.0059 27.8886 12.1105 27.2025 12.5068C26.5163 12.903 26.0248 13.545 25.8186 14.3145C25.6632 14.8944 25.6845 15.4925 25.8738 16.0457C24.4509 19.6315 21.4394 23.2884 17.3508 26.4081C17.2873 26.3656 17.2172 26.3328 17.142 26.3126C16.9619 26.2643 16.77 26.2896 16.6085 26.3829L12.7859 28.5899C11.4999 29.3324 10.5786 30.5362 10.1919 31.9794C9.80518 33.4226 10.0011 34.9258 10.7436 36.2118C11.776 37.9998 13.6551 39.0005 15.585 39.0005C16.5309 39.0005 17.4891 38.7601 18.3654 38.2541L18.5843 38.1278L22.7999 43.6318C23.0912 44.012 23.4972 44.2358 23.9745 44.2791C24.0287 44.284 24.0823 44.2864 24.1355 44.2864C24.5502 44.2864 24.9314 44.1382 25.2459 43.8529L26.4069 42.7994C27.0529 42.213 27.1416 41.2474 26.6132 40.5532L22.6494 35.3452C27.3575 33.3983 31.9873 32.6354 35.7743 33.192C36.3479 33.8485 37.1743 34.2089 38.0193 34.2088C38.5239 34.2088 39.0349 34.0805 39.5024 33.8107C40.9236 32.9902 41.4123 31.1665 40.5917 29.7453L37.5961 24.5566ZM37.4881 20.771C37.7458 21.2173 37.8142 21.7373 37.6808 22.2351C37.5587 22.6908 37.2805 23.0775 36.892 23.3374L34.9674 20.0039C35.8699 19.5604 36.9779 19.8874 37.4881 20.771ZM15.5827 37.5946C14.1394 37.5945 12.7336 36.8459 11.9614 35.5087C11.4067 34.5479 11.2607 33.4238 11.5502 32.3434C11.8397 31.263 12.5282 30.3625 13.4889 29.8078L16.7026 27.9523L20.876 35.1808L17.6623 37.0363C17.0067 37.4148 16.2904 37.5946 15.5827 37.5946ZM25.4618 41.758L24.3009 42.8114C24.2395 42.8671 24.1832 42.886 24.101 42.8785C24.0184 42.871 23.9667 42.8425 23.9163 42.7767L19.8124 37.4187L21.6519 36.3566L25.4942 41.4049C25.5773 41.514 25.5633 41.6658 25.4618 41.758ZM21.8963 34.1353L18.1182 27.5915C22.0537 24.6057 25.0585 21.1189 26.72 17.623L34.8302 31.6704C30.972 31.3613 26.4497 32.2201 21.8963 34.1353ZM38.7992 32.5927C38.0494 33.0257 37.0876 32.7677 36.6548 32.0182L27.331 15.8689C26.8982 15.1192 27.156 14.1573 27.9056 13.7245C28.1451 13.5862 28.412 13.5155 28.6833 13.5155C28.8207 13.5155 28.9594 13.5337 29.0961 13.5703C29.5029 13.6793 29.8417 13.9381 30.05 14.2991L39.3738 30.4483C39.8066 31.198 39.5488 32.16 38.7992 32.5927ZM39.5639 19.5725C39.3697 19.2362 39.4849 18.8061 39.8212 18.612L42.6439 16.9824C42.9802 16.7882 43.4102 16.9035 43.6043 17.2397C43.7985 17.576 43.6833 18.0061 43.347 18.2002L40.5244 19.8298C40.4137 19.8937 40.2928 19.9242 40.1735 19.9242C39.9304 19.9242 39.6941 19.798 39.5639 19.5725ZM36.3098 15.044L38.0288 12.0665C38.223 11.7303 38.6529 11.6149 38.9893 11.8092C39.3256 12.0033 39.4408 12.4334 39.2466 12.7697L37.5276 15.7471C37.3974 15.9727 37.161 16.0988 36.918 16.0988C36.7988 16.0988 36.6779 16.0685 36.5672 16.0045C36.2308 15.8103 36.1156 15.3803 36.3098 15.044ZM45.9998 23.9518C45.9998 24.3402 45.6849 24.6549 45.2967 24.6549H41.8587C41.4704 24.6549 41.1556 24.3402 41.1556 23.9518C41.1556 23.5635 41.4704 23.2487 41.8587 23.2487H45.2967C45.6849 23.2487 45.9998 23.5635 45.9998 23.9518Z" fill="url(#paint1_linear_1381_7783)"/>
</g>
<defs>
<linearGradient id="paint0_linear_1381_7783" x1="47.5774" y1="7.47082" x2="14.1553" y2="53.4754" gradientUnits="userSpaceOnUse">
<stop stop-color="#00A9EE"/>
<stop offset="1" stop-color="#00378A"/>
</linearGradient>
<linearGradient id="paint1_linear_1381_7783" x1="40.585" y1="16.0601" x2="21.8213" y2="44.6078" gradientUnits="userSpaceOnUse">
<stop stop-color="#00A9EE"/>
<stop offset="1" stop-color="#00378A"/>
</linearGradient>
<clipPath id="clip0_1381_7783">
<rect width="36" height="36" fill="white" transform="translate(10 10)"/>
</clipPath>
</defs>
</svg>
