<svg width="56" height="56" viewBox="0 0 56 56" fill="none" xmlns="http://www.w3.org/2000/svg">
<rect x="0.5" y="0.5" width="55" height="55" rx="27.5" fill="#F2F2F2"/>
<rect x="0.5" y="0.5" width="55" height="55" rx="27.5" stroke="url(#paint0_linear_1381_7783)"/>
<g clip-path="url(#clip0_1381_7783)">
<path d="M34.9299 25.5129C35.4451 25.1887 35.8138 24.6903 35.9722 24.0991C36.1387 23.4775 36.0533 22.8283 35.7315 22.271C35.0832 21.148 33.6609 20.7447 32.5232 21.3443L30.3596 17.5969C30.0735 17.1013 29.6098 16.7463 29.054 16.5974C28.4981 16.4485 27.919 16.524 27.4235 16.8102C26.9279 17.0964 26.5729 17.5601 26.424 18.1158C26.3118 18.5346 26.3271 18.9666 26.4639 19.3662C25.4362 21.9559 23.2613 24.597 20.3083 26.8501C20.2625 26.8194 20.2119 26.7957 20.1576 26.7811C20.0275 26.7462 19.8889 26.7645 19.7722 26.8319L17.0115 28.4258C16.0827 28.9621 15.4173 29.8315 15.1381 30.8738C14.8588 31.9161 15.0002 33.0017 15.5365 33.9305C16.2821 35.2219 17.6393 35.9446 19.0331 35.9446C19.7162 35.9446 20.4082 35.7709 21.0412 35.4055L21.1992 35.3143L24.2438 39.2894C24.4542 39.564 24.7474 39.7257 25.0921 39.7569C25.1313 39.7605 25.17 39.7622 25.2084 39.7622C25.5079 39.7622 25.7832 39.6551 26.0104 39.4491L26.8489 38.6882C27.3154 38.2647 27.3795 37.5673 26.9979 37.066L24.1351 33.3046C27.5354 31.8986 30.8792 31.3476 33.6142 31.7496C34.0285 32.2237 34.6253 32.484 35.2356 32.4839C35.6001 32.4839 35.9691 32.3913 36.3068 32.1964C37.3332 31.6038 37.6861 30.2867 37.0935 29.2603L34.9299 25.5129ZM34.8519 22.7788C35.0381 23.1012 35.0875 23.4767 34.9911 23.8362C34.903 24.1653 34.702 24.4446 34.4215 24.6324L33.0315 22.2248C33.6833 21.9045 34.4835 22.1407 34.8519 22.7788ZM19.0314 34.9292C17.989 34.9291 16.9737 34.3885 16.416 33.4227C16.0154 32.7288 15.9099 31.917 16.119 31.1367C16.3281 30.3564 16.8254 29.706 17.5192 29.3054L19.8402 27.9653L22.8543 33.1859L20.5333 34.526C20.0599 34.7993 19.5425 34.9292 19.0314 34.9292ZM26.1663 37.9361L25.3279 38.6969C25.2835 38.7371 25.2429 38.7508 25.1835 38.7453C25.1239 38.74 25.0865 38.7193 25.0501 38.6719L22.0862 34.8022L23.4147 34.0351L26.1897 37.6811C26.2498 37.7599 26.2396 37.8695 26.1663 37.9361ZM23.5912 32.4308L20.8626 27.7048C23.7049 25.5484 25.875 23.0301 27.075 20.5053L32.9324 30.6507C30.1459 30.4274 26.8798 31.0476 23.5912 32.4308ZM35.7989 31.3168C35.2574 31.6295 34.5627 31.4432 34.2501 30.9018L27.5163 19.2384C27.2037 18.697 27.3899 18.0023 27.9313 17.6897C28.1043 17.5898 28.297 17.5388 28.493 17.5388C28.5922 17.5388 28.6923 17.5519 28.7911 17.5783C29.0849 17.6571 29.3296 17.844 29.48 18.1047L36.2138 29.768C36.5265 30.3095 36.3403 31.0042 35.7989 31.3168ZM36.3512 21.9132C36.2109 21.6704 36.2941 21.3598 36.537 21.2196L38.5756 20.0426C38.8185 19.9024 39.129 19.9856 39.2693 20.2285C39.4095 20.4714 39.3263 20.7819 39.0834 20.9221L37.0448 22.0991C36.9649 22.1453 36.8776 22.1672 36.7914 22.1672C36.6159 22.1672 36.4452 22.0761 36.3512 21.9132ZM34.001 18.6427L35.2425 16.4923C35.3827 16.2495 35.6932 16.1661 35.9362 16.3064C36.1791 16.4466 36.2623 16.7572 36.122 17.0001L34.8805 19.1505C34.7865 19.3134 34.6158 19.4045 34.4403 19.4045C34.3541 19.4045 34.2668 19.3826 34.1869 19.3363C33.9439 19.1961 33.8607 18.8856 34.001 18.6427ZM40.9993 25.0761C40.9993 25.3566 40.7719 25.5839 40.4915 25.5839H38.0085C37.7281 25.5839 37.5007 25.3566 37.5007 25.0761C37.5007 24.7956 37.7281 24.5683 38.0085 24.5683H40.4915C40.7719 24.5683 40.9993 24.7956 40.9993 25.0761Z" fill="url(#paint1_linear_1381_7783)"/>
</g>
<defs>
<linearGradient id="paint0_linear_1381_7783" x1="47.5774" y1="7.47082" x2="14.1553" y2="53.4754" gradientUnits="userSpaceOnUse">
<stop stop-color="#00A9EE"/>
<stop offset="1" stop-color="#00378A"/>
</linearGradient>
<linearGradient id="paint1_linear_1381_7783" x1="37.0886" y1="19.3765" x2="23.5371" y2="39.9943" gradientUnits="userSpaceOnUse">
<stop stop-color="#00A9EE"/>
<stop offset="1" stop-color="#00378A"/>
</linearGradient>
<clipPath id="clip0_1381_7783">
<rect width="26" height="26" fill="white" transform="translate(15 15)"/>
</clipPath>
</defs>
</svg>
