<svg width="56" height="56" viewBox="0 0 56 56" fill="none" xmlns="http://www.w3.org/2000/svg">
<rect x="0.5" y="0.5" width="55" height="55" rx="27.5" fill="#F2F2F2"/>
<rect x="0.5" y="0.5" width="55" height="55" rx="27.5" stroke="url(#paint0_linear_1381_7785)"/>
<g clip-path="url(#clip0_1381_7785)">
<path d="M40.7741 33.9165L38.1091 32.584L36.413 28.1722C36.393 28.12 36.3625 28.0725 36.3233 28.0327C36.2842 27.9928 36.2373 27.9615 36.1855 27.9406L25.6616 23.7339C25.588 23.7046 25.5074 23.6974 25.4298 23.7133C25.3522 23.7292 25.281 23.7674 25.2248 23.8233L23.8212 25.2269C23.7661 25.2831 23.7285 25.3541 23.713 25.4312C23.6975 25.5084 23.7048 25.5884 23.7339 25.6615L27.9406 36.1855C27.9615 36.2373 27.9928 36.2842 28.0327 36.3233C28.0725 36.3625 28.12 36.393 28.1722 36.413L32.5841 38.109L33.9166 40.774C33.9446 40.8328 33.9864 40.884 34.0383 40.9232C34.0903 40.9624 34.1509 40.9886 34.2151 40.9995C34.2368 41.0015 34.2585 41.0015 34.2801 40.9995C34.3877 40.9991 34.4907 40.956 34.5666 40.8797L40.8797 34.5665C40.9261 34.5217 40.9613 34.4664 40.9821 34.4053C41.0029 34.3442 41.0089 34.279 40.9995 34.2151C40.9886 34.1509 40.9624 34.0903 40.9232 34.0383C40.884 33.9864 40.8328 33.9446 40.7741 33.9165ZM24.585 25.6087L24.8105 25.3853L30.0491 30.6239C29.7038 31.1131 29.5547 31.714 29.6312 32.3079C29.7077 32.9018 30.0043 33.4453 30.4623 33.831C30.9202 34.2167 31.5063 34.4166 32.1045 34.391C32.7027 34.3654 33.2695 34.1163 33.6929 33.6929C34.1163 33.2695 34.3654 32.7027 34.391 32.1045C34.4166 31.5063 34.2167 30.9202 33.831 30.4623C33.4453 30.0043 32.9018 29.7077 32.3079 29.6312C31.7141 29.5547 31.1131 29.7038 30.6239 30.049L25.3853 24.8105L25.6087 24.585L35.7183 28.6292L37.3128 32.777L32.777 37.3128L28.6292 35.7183L24.585 25.6087ZM32.0011 30.4228C32.3662 30.4233 32.7198 30.5505 33.0017 30.7825C33.2836 31.0145 33.4764 31.3371 33.5471 31.6953C33.6179 32.0535 33.5622 32.4251 33.3897 32.7469C33.2171 33.0687 32.9384 33.3207 32.6009 33.46C32.2634 33.5993 31.888 33.6173 31.5387 33.5108C31.1895 33.4044 30.8879 33.1802 30.6854 32.8764C30.4829 32.5726 30.392 32.208 30.4282 31.8446C30.4644 31.4813 30.6254 31.1418 30.8839 30.8839C31.1805 30.5882 31.5823 30.4224 32.0011 30.4228ZM34.3919 39.9067L33.3762 37.8755L37.8714 33.3803L39.9026 34.3959L34.3919 39.9067Z" fill="url(#paint1_linear_1381_7785)"/>
<path d="M22.7697 36.7348C22.692 36.6614 22.5892 36.6205 22.4823 36.6205C22.3754 36.6205 22.2725 36.6614 22.1948 36.7348L21.6789 37.2508C20.3021 35.3821 19.5425 33.1305 19.5061 30.8097C19.4697 28.4888 20.1582 26.2145 21.4758 24.3036C21.8705 24.5208 22.325 24.6042 22.7711 24.5414C23.2173 24.4785 23.631 24.2728 23.9504 23.955C24.2698 23.6372 24.4776 23.2245 24.5427 22.7787C24.6078 22.3329 24.5266 21.878 24.3114 21.4822C26.2223 20.1646 28.4967 19.4761 30.8175 19.5125C33.1383 19.5489 35.3899 20.3085 37.2586 21.6853L36.7345 22.1951C36.659 22.2713 36.6166 22.3743 36.6167 22.4815C36.6164 22.535 36.6267 22.588 36.6469 22.6375C36.6671 22.687 36.6969 22.732 36.7345 22.77L38.5261 24.5473C38.6022 24.623 38.7052 24.6655 38.8125 24.6655C38.9198 24.6655 39.0228 24.623 39.0989 24.5473L40.8803 22.7659C40.9181 22.7282 40.948 22.6834 40.9685 22.6341C40.9889 22.5847 40.9995 22.5319 40.9995 22.4785C40.9995 22.4251 40.9889 22.3722 40.9685 22.3229C40.948 22.2736 40.9181 22.2288 40.8803 22.1911L39.0989 20.4097C39.0228 20.334 38.9198 20.2915 38.8125 20.2915C38.7052 20.2915 38.6022 20.334 38.5261 20.4097L37.8375 21.0942C36.1404 19.8171 34.134 19.0148 32.0243 18.7696C29.9146 18.5243 27.7776 18.845 25.8328 19.6987L28.1748 17.3628C28.4404 17.4897 28.7423 17.5184 29.027 17.4439C29.3117 17.3693 29.5608 17.1963 29.7302 16.9556C29.8995 16.7149 29.978 16.4219 29.9519 16.1288C29.9258 15.8356 29.7967 15.5612 29.5875 15.3542C29.3783 15.1472 29.1025 15.021 28.8091 14.998C28.5157 14.9749 28.2236 15.0566 27.9847 15.2284C27.7457 15.4003 27.5754 15.6512 27.5038 15.9367C27.4323 16.2221 27.4642 16.5237 27.5939 16.7879L23.6411 20.7469C23.2397 20.4776 22.7574 20.3561 22.2764 20.403C21.7954 20.45 21.3456 20.6625 21.0039 21.0042C20.6622 21.3459 20.4497 21.7957 20.4027 22.2767C20.3558 22.7577 20.4773 23.24 20.7466 23.6414L16.7877 27.5942C16.5224 27.465 16.2199 27.4339 15.934 27.5066C15.648 27.5793 15.3971 27.7511 15.2258 27.9913C15.0546 28.2315 14.974 28.5247 14.9984 28.8188C15.0229 29.1128 15.1508 29.3886 15.3594 29.5973C15.5681 29.8059 15.8439 29.9338 16.1379 29.9583C16.432 29.9827 16.7252 29.9021 16.9654 29.7308C17.2056 29.5596 17.3774 29.3086 17.4501 29.0227C17.5228 28.7367 17.4917 28.4343 17.3625 28.169L19.7045 25.8331C18.85 27.7774 18.5283 29.914 18.7724 32.0237C19.0166 34.1334 19.8178 36.1401 21.0939 37.8378L20.4073 38.5264C20.3317 38.6025 20.2892 38.7055 20.2892 38.8128C20.2892 38.9201 20.3317 39.0231 20.4073 39.0992L22.1887 40.8806C22.2646 40.9569 22.3676 41 22.4752 41.0004C22.5288 41.0005 22.5818 40.9899 22.6313 40.9694C22.6809 40.9488 22.7258 40.9186 22.7636 40.8806L24.547 39.0992C24.6227 39.0231 24.6652 38.9201 24.6652 38.8128C24.6652 38.7055 24.6227 38.6025 24.547 38.5264L22.7697 36.7348ZM38.8166 21.2669L40.0231 22.4734L38.8166 23.68L37.61 22.4734L38.8166 21.2669ZM28.4064 15.9409C28.4668 15.8801 28.5439 15.8385 28.6279 15.8215C28.7119 15.8045 28.7991 15.8129 28.8783 15.8455C28.9576 15.8782 29.0254 15.9336 29.0731 16.0049C29.1208 16.0761 29.1462 16.1599 29.1462 16.2456C29.1462 16.3313 29.1208 16.4151 29.0731 16.4863C29.0254 16.5576 28.9576 16.613 28.8783 16.6457C28.7991 16.6783 28.7119 16.6867 28.6279 16.6697C28.5439 16.6527 28.4668 16.6111 28.4064 16.5503C28.3664 16.5103 28.3346 16.4628 28.3129 16.4105C28.2912 16.3582 28.2801 16.3022 28.2801 16.2456C28.2801 16.189 28.2912 16.133 28.3129 16.0807C28.3346 16.0284 28.3664 15.9809 28.4064 15.9409ZM21.5814 21.5817C21.6994 21.4632 21.8396 21.3691 21.994 21.3049C22.1484 21.2407 22.314 21.2077 22.4812 21.2077C22.6485 21.2077 22.8141 21.2407 22.9685 21.3049C23.1229 21.3691 23.2631 21.4632 23.3811 21.5817C23.5594 21.7597 23.6809 21.9867 23.7302 22.2338C23.7795 22.4809 23.7544 22.7371 23.6581 22.9699C23.5618 23.2027 23.3985 23.4018 23.189 23.5418C22.9795 23.6818 22.7332 23.7566 22.4812 23.7566C22.2293 23.7566 21.9829 23.6818 21.7735 23.5418C21.564 23.4018 21.4007 23.2027 21.3044 22.9699C21.2081 22.7371 21.183 22.4809 21.2323 22.2338C21.2816 21.9867 21.4031 21.7597 21.5814 21.5817ZM16.552 29.0161C16.4691 29.0852 16.3633 29.1209 16.2554 29.116C16.1475 29.1111 16.0454 29.0661 15.969 28.9897C15.8926 28.9134 15.8476 28.8112 15.8427 28.7033C15.8378 28.5954 15.8735 28.4896 15.9427 28.4067C16.0239 28.3268 16.1334 28.282 16.2473 28.282C16.3613 28.282 16.4707 28.3268 16.552 28.4067C16.5921 28.4467 16.6238 28.4942 16.6455 28.5465C16.6672 28.5987 16.6783 28.6548 16.6783 28.7114C16.6783 28.768 16.6672 28.824 16.6455 28.8763C16.6238 28.9286 16.5921 28.9761 16.552 29.0161ZM22.4812 40.0112L21.2747 38.8047L22.4812 37.5981L23.6878 38.8047L22.4812 40.0112Z" fill="url(#paint2_linear_1381_7785)"/>
</g>
<defs>
<linearGradient id="paint0_linear_1381_7785" x1="47.5774" y1="7.47082" x2="14.1553" y2="53.4754" gradientUnits="userSpaceOnUse">
<stop stop-color="#00A9EE"/>
<stop offset="1" stop-color="#00378A"/>
</linearGradient>
<linearGradient id="paint1_linear_1381_7785" x1="38.402" y1="26.0125" x2="28.0799" y2="40.2229" gradientUnits="userSpaceOnUse">
<stop stop-color="#00A9EE"/>
<stop offset="1" stop-color="#00378A"/>
</linearGradient>
<linearGradient id="paint2_linear_1381_7785" x1="37.0881" y1="18.4636" x2="21.5668" y2="39.8275" gradientUnits="userSpaceOnUse">
<stop stop-color="#00A9EE"/>
<stop offset="1" stop-color="#00378A"/>
</linearGradient>
<clipPath id="clip0_1381_7785">
<rect width="26" height="26" fill="white" transform="translate(15 15)"/>
</clipPath>
</defs>
</svg>
