<svg width="50" height="50" viewBox="0 0 50 50" fill="none" xmlns="http://www.w3.org/2000/svg">
<g clip-path="url(#clip0_4_192)">
<path d="M49.5664 36.3789L44.4414 33.8164L41.1797 25.332C41.1413 25.2317 41.0826 25.1404 41.0073 25.0638C40.9321 24.9871 40.8418 24.9269 40.7422 24.8867L20.5039 16.7969C20.3624 16.7405 20.2075 16.7268 20.0583 16.7573C19.9091 16.7879 19.7721 16.8613 19.6641 16.9687L16.9648 19.668C16.8589 19.776 16.7866 19.9126 16.7568 20.061C16.7269 20.2094 16.7409 20.3633 16.7969 20.5039L24.8867 40.7422C24.9269 40.8418 24.9872 40.9321 25.0638 41.0073C25.1404 41.0826 25.2317 41.1413 25.332 41.1797L33.8164 44.4414L36.3789 49.5664C36.4329 49.6794 36.5132 49.7778 36.6131 49.8532C36.7131 49.9287 36.8297 49.979 36.9531 50C36.9947 50.0038 37.0365 50.0038 37.0781 50C37.285 49.9991 37.4831 49.9162 37.6289 49.7695L49.7695 37.6289C49.8589 37.5427 49.9264 37.4364 49.9665 37.3189C50.0066 37.2013 50.0181 37.076 50 36.9531C49.979 36.8297 49.9287 36.713 49.8532 36.6131C49.7778 36.5132 49.6794 36.4328 49.5664 36.3789ZM18.4336 20.4023L18.8672 19.9726L28.9414 30.0469C28.2775 30.9876 27.9907 32.1433 28.1379 33.2853C28.285 34.4274 28.8553 35.4726 29.736 36.2144C30.6167 36.9562 31.7437 37.3405 32.8942 37.2913C34.0446 37.2421 35.1347 36.7631 35.9489 35.9489C36.7631 35.1346 37.2421 34.0446 37.2913 32.8941C37.3405 31.7437 36.9562 30.6167 36.2144 29.736C35.4726 28.8553 34.4274 28.285 33.2854 28.1379C32.1433 27.9907 30.9877 28.2775 30.0469 28.9414L19.9727 18.8672L20.4023 18.4336L39.8437 26.2109L42.9102 34.1875L34.1875 42.9101L26.2109 39.8437L18.4336 20.4023ZM32.6953 29.6601C33.3975 29.6612 34.0775 29.9056 34.6196 30.3518C35.1618 30.7981 35.5324 31.4184 35.6684 32.1073C35.8045 32.7961 35.6975 33.5108 35.3657 34.1296C35.0339 34.7484 34.4978 35.233 33.8487 35.5009C33.1997 35.7688 32.4779 35.8033 31.8062 35.5987C31.1345 35.394 30.5546 34.9629 30.1652 34.3786C29.7758 33.7943 29.601 33.0931 29.6706 32.3945C29.7402 31.6958 30.0499 31.0428 30.5469 30.5469C31.1172 29.9783 31.89 29.6594 32.6953 29.6601ZM37.293 47.8984L35.3398 43.9922L43.9844 35.3476L47.8906 37.3008L37.293 47.8984Z" fill="url(#paint0_linear_4_192)"/>
<path d="M14.9439 41.7976C14.7945 41.6564 14.5968 41.5777 14.3912 41.5777C14.1856 41.5777 13.9879 41.6564 13.8385 41.7976L12.8463 42.7898C10.1985 39.1962 8.73787 34.8662 8.66785 30.4031C8.59783 25.94 9.92195 21.5662 12.4557 17.8913C13.2148 18.309 14.0888 18.4695 14.9467 18.3486C15.8047 18.2278 16.6004 17.8322 17.2146 17.2211C17.8288 16.61 18.2284 15.8163 18.3536 14.9589C18.4787 14.1016 18.3227 13.2267 17.9088 12.4656C21.5836 9.93185 25.9574 8.60774 30.4205 8.67776C34.8836 8.74778 39.2137 10.2084 42.8072 12.8562L41.7994 13.8367C41.6541 13.9831 41.5727 14.1811 41.5728 14.3874C41.5723 14.4903 41.592 14.5922 41.6308 14.6874C41.6697 14.7825 41.727 14.8691 41.7994 14.9421L45.2447 18.3601C45.3911 18.5056 45.5891 18.5873 45.7955 18.5873C46.0019 18.5873 46.1999 18.5056 46.3463 18.3601L49.7721 14.9343C49.8447 14.8618 49.9023 14.7756 49.9416 14.6807C49.981 14.5859 50.0012 14.4842 50.0012 14.3816C50.0012 14.2789 49.981 14.1772 49.9416 14.0824C49.9023 13.9876 49.8447 13.9014 49.7721 13.8288L46.3463 10.4031C46.1999 10.2575 46.0019 10.1759 45.7955 10.1759C45.5891 10.1759 45.3911 10.2575 45.2447 10.4031L43.9205 11.7195C40.6569 9.26359 36.7984 7.72062 32.7412 7.249C28.6841 6.77739 24.5745 7.39412 20.8346 9.03587L25.3385 4.54368C25.8491 4.78769 26.4298 4.84293 26.9773 4.69958C27.5248 4.55624 28.0039 4.22358 28.3295 3.76063C28.6551 3.29768 28.8061 2.73436 28.7559 2.17061C28.7057 1.60686 28.4574 1.07912 28.0551 0.681028C27.6528 0.282933 27.1224 0.0402139 26.5582 -0.00406964C25.9939 -0.0483532 25.4322 0.108662 24.9727 0.43912C24.5133 0.769579 24.1857 1.25212 24.0481 1.80113C23.9105 2.35014 23.9719 2.93013 24.2213 3.43821L16.6197 11.0515C15.8479 10.5338 14.9203 10.3001 13.9953 10.3903C13.0703 10.4806 12.2054 10.8892 11.5482 11.5464C10.891 12.2035 10.4824 13.0685 10.3921 13.9935C10.3019 14.9185 10.5356 15.8461 11.0533 16.6179L3.44003 24.2195C2.92996 23.9709 2.34829 23.9113 1.79839 24.0511C1.24848 24.1909 0.765955 24.5211 0.436548 24.9831C0.107141 25.4451 -0.0478113 26.0089 -0.000774064 26.5744C0.0462631 27.1398 0.292243 27.6703 0.693457 28.0715C1.09467 28.4727 1.62513 28.7187 2.19058 28.7657C2.75603 28.8128 3.31984 28.6578 3.78183 28.3284C4.24382 27.999 4.57407 27.5165 4.71389 26.9666C4.8537 26.4167 4.79404 25.835 4.54549 25.3249L9.0494 20.8327C7.40601 24.5717 6.78733 28.6807 7.25689 32.7378C7.72644 36.7949 9.26731 40.6539 11.7213 43.9187L10.401 45.2429C10.2555 45.3893 10.1738 45.5873 10.1738 45.7937C10.1738 46.0001 10.2555 46.1981 10.401 46.3445L13.8267 49.7703C13.9726 49.917 14.1707 49.9999 14.3775 50.0007C14.4806 50.0008 14.5827 49.9805 14.6779 49.9409C14.7731 49.9014 14.8595 49.8434 14.9322 49.7703L18.3619 46.3445C18.5074 46.1981 18.5891 46.0001 18.5891 45.7937C18.5891 45.5873 18.5074 45.3893 18.3619 45.2429L14.9439 41.7976ZM45.8033 12.0515L48.1236 14.3718L45.8033 16.6921L43.483 14.3718L45.8033 12.0515ZM25.7838 1.8093C25.8999 1.69227 26.0481 1.61235 26.2097 1.5797C26.3713 1.54704 26.5389 1.56312 26.6913 1.6259C26.8438 1.68867 26.9741 1.79531 27.0658 1.93229C27.1576 2.06926 27.2065 2.23039 27.2065 2.39524C27.2065 2.56009 27.1576 2.72122 27.0658 2.8582C26.9741 2.99517 26.8438 3.10181 26.6913 3.16458C26.5389 3.22736 26.3713 3.24344 26.2097 3.21079C26.0481 3.17813 25.8999 3.09822 25.7838 2.98118C25.7068 2.90427 25.6457 2.81293 25.604 2.71239C25.5623 2.61185 25.5409 2.50408 25.5409 2.39524C25.5409 2.2864 25.5623 2.17863 25.604 2.07809C25.6457 1.97755 25.7068 1.88622 25.7838 1.8093ZM12.6588 12.657C12.8856 12.429 13.1553 12.2481 13.4523 12.1247C13.7492 12.0013 14.0677 11.9377 14.3892 11.9377C14.7108 11.9377 15.0293 12.0013 15.3262 12.1247C15.6232 12.2481 15.8929 12.429 16.1197 12.657C16.4626 12.9993 16.6963 13.4357 16.7911 13.9109C16.8859 14.3862 16.8377 14.8788 16.6524 15.3266C16.4671 15.7743 16.1532 16.1571 15.7504 16.4264C15.3475 16.6957 14.8738 16.8394 14.3892 16.8394C13.9047 16.8394 13.431 16.6957 13.0281 16.4264C12.6253 16.1571 12.3113 15.7743 12.1261 15.3266C11.9408 14.8788 11.8926 14.3862 11.9874 13.9109C12.0822 13.4357 12.3159 12.9993 12.6588 12.657ZM2.9869 26.9538C2.8274 27.0869 2.62393 27.1554 2.41647 27.146C2.209 27.1367 2.01254 27.05 1.86569 26.9032C1.71884 26.7563 1.63221 26.5599 1.62284 26.3524C1.61346 26.1449 1.68202 25.9415 1.81503 25.782C1.97136 25.6283 2.18177 25.5422 2.40096 25.5422C2.62015 25.5422 2.83057 25.6283 2.9869 25.782C3.06391 25.8589 3.125 25.9502 3.16668 26.0508C3.20836 26.1513 3.22982 26.2591 3.22982 26.3679C3.22982 26.4767 3.20836 26.5845 3.16668 26.6851C3.125 26.7856 3.06391 26.8769 2.9869 26.9538ZM14.3892 48.0984L12.0689 45.7781L14.3892 43.4578L16.7096 45.7781L14.3892 48.0984Z" fill="url(#paint1_linear_4_192)"/>
</g>
<defs>
<linearGradient id="paint0_linear_4_192" x1="45.0048" y1="21.1788" x2="25.1546" y2="48.5065" gradientUnits="userSpaceOnUse">
<stop stop-color="#00A9EE"/>
<stop offset="1" stop-color="#00378A"/>
</linearGradient>
<linearGradient id="paint1_linear_4_192" x1="42.4795" y1="6.66059" x2="12.6307" y2="47.745" gradientUnits="userSpaceOnUse">
<stop stop-color="#00A9EE"/>
<stop offset="1" stop-color="#00378A"/>
</linearGradient>
<clipPath id="clip0_4_192">
<rect width="50" height="50" fill="white"/>
</clipPath>
</defs>
</svg>
