<svg width="56" height="56" viewBox="0 0 56 56" fill="none" xmlns="http://www.w3.org/2000/svg">
<rect x="0.5" y="0.5" width="55" height="55" rx="27.5" fill="#F2F2F2"/>
<rect x="0.5" y="0.5" width="55" height="55" rx="27.5" stroke="url(#paint0_linear_1381_7785)"/>
<g clip-path="url(#clip0_1381_7785)">
<path d="M45.6887 36.1936L41.9987 34.3486L39.6502 28.2399C39.6226 28.1677 39.5803 28.1019 39.5261 28.0467C39.4719 27.9916 39.4069 27.9482 39.3352 27.9193L24.7637 22.0946C24.6618 22.054 24.5503 22.0441 24.4428 22.0661C24.3354 22.0881 24.2367 22.141 24.159 22.2183L22.2155 24.1618C22.1392 24.2396 22.0872 24.3379 22.0657 24.4448C22.0442 24.5516 22.0543 24.6624 22.0946 24.7636L27.9193 39.3352C27.9482 39.4069 27.9916 39.4719 28.0468 39.5261C28.1019 39.5803 28.1677 39.6226 28.2399 39.6502L34.3487 41.9986L36.1937 45.6886C36.2325 45.77 36.2903 45.8408 36.3623 45.8952C36.4342 45.9495 36.5182 45.9857 36.6071 46.0008C36.637 46.0036 36.6672 46.0036 36.6971 46.0008C36.846 46.0002 36.9886 45.9405 37.0937 45.8349L45.8349 37.0936C45.8992 37.0316 45.9478 36.955 45.9767 36.8704C46.0056 36.7858 46.0138 36.6955 46.0008 36.6071C45.9857 36.5182 45.9495 36.4342 45.8952 36.3623C45.8408 36.2903 45.77 36.2325 45.6887 36.1936ZM23.273 24.6905L23.5852 24.3811L30.8387 31.6346C30.3606 32.3119 30.1542 33.144 30.2601 33.9663C30.3661 34.7885 30.7767 35.5411 31.4108 36.0752C32.0449 36.6093 32.8563 36.886 33.6846 36.8506C34.5129 36.8152 35.2978 36.4703 35.884 35.884C36.4703 35.2978 36.8152 34.5129 36.8506 33.6846C36.886 32.8563 36.6093 32.0449 36.0752 31.4108C35.5411 30.7767 34.7886 30.366 33.9663 30.2601C33.144 30.1542 32.312 30.3606 31.6346 30.8386L24.3812 23.5852L24.6905 23.273L38.6883 28.8727L40.8962 34.6158L34.6158 40.8961L28.8727 38.6883L23.273 24.6905ZM33.5415 31.3561C34.047 31.3569 34.5367 31.5329 34.927 31.8542C35.3173 32.1754 35.5842 32.6221 35.6821 33.1181C35.7801 33.614 35.703 34.1286 35.4641 34.5742C35.2252 35.0197 34.8392 35.3686 34.3719 35.5615C33.9046 35.7543 33.3849 35.7792 32.9013 35.6319C32.4177 35.4846 32.0002 35.1741 31.7198 34.7534C31.4394 34.3328 31.3136 33.8279 31.3637 33.3248C31.4138 32.8218 31.6367 32.3517 31.9946 31.9946C32.4053 31.5852 32.9616 31.3556 33.5415 31.3561ZM36.8518 44.4877L35.4455 41.6752L41.6696 35.4511L44.4821 36.8574L36.8518 44.4877Z" fill="url(#paint1_linear_1381_7785)"/>
<path d="M20.7583 40.0947C20.6508 39.993 20.5084 39.9364 20.3604 39.9364C20.2123 39.9364 20.07 39.993 19.9624 40.0947L19.248 40.809C17.3416 38.2217 16.29 35.104 16.2395 31.8906C16.1891 28.6772 17.1425 25.5281 18.9668 22.8822C19.5133 23.1829 20.1426 23.2984 20.7603 23.2114C21.3781 23.1244 21.951 22.8396 22.3932 22.3996C22.8354 21.9596 23.1231 21.3881 23.2133 20.7708C23.3034 20.1535 23.191 19.5237 22.893 18.9756C25.5389 17.1513 28.688 16.198 31.9014 16.2484C35.1149 16.2988 38.2325 17.3505 40.8199 19.2569L40.0943 19.9628C39.9897 20.0683 39.931 20.2108 39.9311 20.3594C39.9307 20.4334 39.9449 20.5068 39.9729 20.5753C40.0009 20.6438 40.0421 20.7062 40.0943 20.7587L42.5749 23.2197C42.6803 23.3244 42.8228 23.3832 42.9714 23.3832C43.1201 23.3832 43.2626 23.3244 43.368 23.2197L45.8346 20.7531C45.8869 20.7009 45.9284 20.6388 45.9567 20.5705C45.985 20.5023 45.9995 20.4291 45.9995 20.3551C45.9995 20.2812 45.985 20.208 45.9567 20.1397C45.9284 20.0714 45.8869 20.0094 45.8346 19.9572L43.368 17.4906C43.2626 17.3858 43.1201 17.327 42.9714 17.327C42.8228 17.327 42.6803 17.3858 42.5749 17.4906L41.6214 18.4384C39.2716 16.6702 36.4935 15.5592 33.5724 15.2197C30.6512 14.8801 27.6924 15.3242 24.9996 16.5062L28.2424 13.2719C28.6101 13.4475 29.0281 13.4873 29.4223 13.3841C29.8166 13.2809 30.1615 13.0414 30.3959 12.7081C30.6303 12.3747 30.7391 11.9691 30.7029 11.5632C30.6668 11.1573 30.488 10.7774 30.1983 10.4907C29.9087 10.2041 29.5268 10.0294 29.1206 9.99748C28.7143 9.96559 28.3099 10.0786 27.9791 10.3166C27.6482 10.5545 27.4124 10.9019 27.3133 11.2972C27.2143 11.6925 27.2585 12.1101 27.438 12.4759L21.9649 17.9575C21.4092 17.5847 20.7413 17.4165 20.0753 17.4814C19.4093 17.5464 18.7865 17.8406 18.3134 18.3138C17.8402 18.7869 17.546 19.4097 17.481 20.0757C17.416 20.7417 17.5843 21.4096 17.9571 21.9653L12.4755 27.4384C12.1083 27.2595 11.6895 27.2165 11.2935 27.3172C10.8976 27.4178 10.5502 27.6556 10.313 27.9883C10.0758 28.3209 9.96427 28.7268 9.99813 29.134C10.032 29.5411 10.2091 29.923 10.498 30.2119C10.7869 30.5008 11.1688 30.6779 11.5759 30.7117C11.983 30.7456 12.389 30.634 12.7216 30.3969C13.0542 30.1597 13.292 29.8123 13.3927 29.4163C13.4934 29.0204 13.4504 28.6016 13.2714 28.2344L16.5143 25C15.331 27.692 14.8856 30.6505 15.2236 33.5716C15.5617 36.4927 16.6712 39.2712 18.438 41.6219L17.4874 42.5753C17.3826 42.6807 17.3238 42.8232 17.3238 42.9719C17.3238 43.1205 17.3826 43.263 17.4874 43.3684L19.9539 45.835C20.059 45.9406 20.2016 46.0003 20.3505 46.0009C20.4247 46.001 20.4982 45.9863 20.5668 45.9579C20.6353 45.9294 20.6976 45.8876 20.7499 45.835L23.2193 43.3684C23.324 43.263 23.3828 43.1205 23.3828 42.9719C23.3828 42.8232 23.324 42.6807 23.2193 42.5753L20.7583 40.0947ZM42.9771 18.6775L44.6477 20.3481L42.9771 22.0187L41.3064 20.3481L42.9771 18.6775ZM28.563 11.3031C28.6466 11.2188 28.7533 11.1613 28.8697 11.1378C28.986 11.1143 29.1067 11.1259 29.2165 11.1711C29.3262 11.2162 29.4201 11.293 29.4861 11.3917C29.5521 11.4903 29.5874 11.6063 29.5874 11.725C29.5874 11.8437 29.5521 11.9597 29.4861 12.0583C29.4201 12.1569 29.3262 12.2337 29.2165 12.2789C29.1067 12.3241 28.986 12.3357 28.8697 12.3122C28.7533 12.2887 28.6466 12.2311 28.563 12.1469C28.5076 12.0915 28.4636 12.0257 28.4336 11.9533C28.4036 11.8809 28.3881 11.8033 28.3881 11.725C28.3881 11.6466 28.4036 11.569 28.4336 11.4966C28.4636 11.4242 28.5076 11.3585 28.563 11.3031ZM19.113 19.1134C19.2763 18.9493 19.4705 18.8191 19.6843 18.7302C19.8981 18.6413 20.1274 18.5956 20.3589 18.5956C20.5905 18.5956 20.8198 18.6413 21.0336 18.7302C21.2474 18.8191 21.4415 18.9493 21.6049 19.1134C21.8518 19.3599 22.02 19.6741 22.0883 20.0163C22.1566 20.3584 22.1218 20.7131 21.9884 21.0355C21.855 21.3579 21.629 21.6335 21.339 21.8274C21.0489 22.0213 20.7078 22.1248 20.3589 22.1248C20.0101 22.1248 19.669 22.0213 19.3789 21.8274C19.0889 21.6335 18.8629 21.3579 18.7295 21.0355C18.5961 20.7131 18.5613 20.3584 18.6296 20.0163C18.6979 19.6741 18.8661 19.3599 19.113 19.1134ZM12.1493 29.4072C12.0344 29.5029 11.8879 29.5523 11.7385 29.5455C11.5892 29.5388 11.4477 29.4764 11.342 29.3707C11.2363 29.265 11.1739 29.1235 11.1671 28.9741C11.1604 28.8248 11.2097 28.6783 11.3055 28.5634C11.4181 28.4528 11.5696 28.3908 11.7274 28.3908C11.8852 28.3908 12.0367 28.4528 12.1493 28.5634C12.2047 28.6188 12.2487 28.6846 12.2787 28.7569C12.3087 28.8293 12.3242 28.9069 12.3242 28.9853C12.3242 29.0637 12.3087 29.1412 12.2787 29.2136C12.2487 29.286 12.2047 29.3518 12.1493 29.4072ZM20.3589 44.6312L18.6883 42.9606L20.3589 41.29L22.0296 42.9606L20.3589 44.6312Z" fill="url(#paint2_linear_1381_7785)"/>
</g>
<defs>
<linearGradient id="paint0_linear_1381_7785" x1="47.5774" y1="7.47082" x2="14.1553" y2="53.4754" gradientUnits="userSpaceOnUse">
<stop stop-color="#00A9EE"/>
<stop offset="1" stop-color="#00378A"/>
</linearGradient>
<linearGradient id="paint1_linear_1381_7785" x1="42.4043" y1="25.2496" x2="28.1122" y2="44.9255" gradientUnits="userSpaceOnUse">
<stop stop-color="#00A9EE"/>
<stop offset="1" stop-color="#00378A"/>
</linearGradient>
<linearGradient id="paint2_linear_1381_7785" x1="40.5839" y1="14.796" x2="19.0928" y2="44.3768" gradientUnits="userSpaceOnUse">
<stop stop-color="#00A9EE"/>
<stop offset="1" stop-color="#00378A"/>
</linearGradient>
<clipPath id="clip0_1381_7785">
<rect width="36" height="36" fill="white" transform="translate(10 10)"/>
</clipPath>
</defs>
</svg>
