<svg width="50" height="50" viewBox="0 0 50 50" fill="none" xmlns="http://www.w3.org/2000/svg">
<g clip-path="url(#clip0_4_179)">
<path d="M45.6055 0.0976562H4.39453C1.97139 0.0976562 0 2.06904 0 4.49219V45.5078C0 47.931 1.97139 49.9023 4.39453 49.9023H45.6055C48.0286 49.9023 50 47.931 50 45.5078V4.49219C50 2.06904 48.0286 0.0976562 45.6055 0.0976562ZM4.39453 3.02734H45.6055C46.4132 3.02734 47.0703 3.68447 47.0703 4.49219V11.8164H2.92969V4.49219C2.92969 3.68447 3.58682 3.02734 4.39453 3.02734ZM45.6055 46.9727H4.39453C3.58682 46.9727 2.92969 46.3155 2.92969 45.5078V14.7461H47.0703V45.5078C47.0703 46.3155 46.4132 46.9727 45.6055 46.9727Z" fill="url(#paint0_linear_4_179)"/>
<path d="M29.9715 19.2591C29.2279 18.9404 28.3667 19.2849 28.048 20.0284L19.259 40.5362C18.9402 41.2798 19.2848 42.141 20.0283 42.4597C20.7722 42.7784 21.6332 42.4337 21.9518 41.6903L30.7408 21.1825C31.0596 20.4389 30.715 19.5777 29.9715 19.2591Z" fill="url(#paint1_linear_4_179)"/>
<path d="M17.3549 24.0849C16.8494 23.4531 15.9275 23.3508 15.296 23.8562L7.97179 29.7155C7.23947 30.3012 7.23898 31.4171 7.97179 32.0032L15.296 37.8626C15.9277 38.3681 16.8497 38.2655 17.3549 37.6339C17.8603 37.0022 17.7579 36.0803 17.1261 35.575L11.2318 30.8594L17.1261 26.1439C17.7579 25.6385 17.8603 24.7167 17.3549 24.0849Z" fill="url(#paint2_linear_4_179)"/>
<path d="M42.0284 29.7155L34.7042 23.8561C34.0724 23.3507 33.1506 23.4531 32.6453 24.0849C32.1399 24.7166 32.2423 25.6385 32.8741 26.1437L38.7684 30.8594L32.8741 35.5749C32.2423 36.0803 32.1399 37.002 32.6453 37.6338C33.1513 38.2662 34.0733 38.3674 34.7042 37.8625L42.0284 32.0031C42.7607 31.4175 42.7612 30.3016 42.0284 29.7155Z" fill="url(#paint3_linear_4_179)"/>
<path d="M7.42188 8.88672C8.23089 8.88672 8.88672 8.23089 8.88672 7.42188C8.88672 6.61286 8.23089 5.95703 7.42188 5.95703C6.61286 5.95703 5.95703 6.61286 5.95703 7.42188C5.95703 8.23089 6.61286 8.88672 7.42188 8.88672Z" fill="url(#paint4_linear_4_179)"/>
<path d="M13.2812 8.88672C14.0903 8.88672 14.7461 8.23089 14.7461 7.42188C14.7461 6.61286 14.0903 5.95703 13.2812 5.95703C12.4722 5.95703 11.8164 6.61286 11.8164 7.42188C11.8164 8.23089 12.4722 8.88672 13.2812 8.88672Z" fill="url(#paint5_linear_4_179)"/>
<path d="M19.1406 8.88672C19.9496 8.88672 20.6055 8.23089 20.6055 7.42188C20.6055 6.61286 19.9496 5.95703 19.1406 5.95703C18.3316 5.95703 17.6758 6.61286 17.6758 7.42188C17.6758 8.23089 18.3316 8.88672 19.1406 8.88672Z" fill="url(#paint6_linear_4_179)"/>
<path d="M33.7891 8.88672H42.5781C43.3871 8.88672 44.043 8.23086 44.043 7.42188C44.043 6.61289 43.3871 5.95703 42.5781 5.95703H33.7891C32.9801 5.95703 32.3242 6.61289 32.3242 7.42188C32.3242 8.23086 32.9801 8.88672 33.7891 8.88672Z" fill="url(#paint7_linear_4_179)"/>
</g>
<defs>
<linearGradient id="paint0_linear_4_179" x1="42.4798" y1="6.74198" x2="12.7913" y2="47.7675" gradientUnits="userSpaceOnUse">
<stop stop-color="#00A9EE"/>
<stop offset="1" stop-color="#00378A"/>
</linearGradient>
<linearGradient id="paint1_linear_4_179" x1="29.097" y1="22.2671" x2="15.3583" y2="31.7229" gradientUnits="userSpaceOnUse">
<stop stop-color="#00A9EE"/>
<stop offset="1" stop-color="#00378A"/>
</linearGradient>
<linearGradient id="paint2_linear_4_179" x1="16.1338" y1="25.4893" x2="6.9474" y2="34.3403" gradientUnits="userSpaceOnUse">
<stop stop-color="#00A9EE"/>
<stop offset="1" stop-color="#00378A"/>
</linearGradient>
<linearGradient id="paint3_linear_4_179" x1="41.0356" y1="25.4893" x2="31.8493" y2="34.3402" gradientUnits="userSpaceOnUse">
<stop stop-color="#00A9EE"/>
<stop offset="1" stop-color="#00378A"/>
</linearGradient>
<linearGradient id="paint4_linear_4_179" x1="8.44608" y1="6.34787" x2="6.69758" y2="8.75464" gradientUnits="userSpaceOnUse">
<stop stop-color="#00A9EE"/>
<stop offset="1" stop-color="#00378A"/>
</linearGradient>
<linearGradient id="paint5_linear_4_179" x1="14.3055" y1="6.34787" x2="12.557" y2="8.75464" gradientUnits="userSpaceOnUse">
<stop stop-color="#00A9EE"/>
<stop offset="1" stop-color="#00378A"/>
</linearGradient>
<linearGradient id="paint6_linear_4_179" x1="20.1648" y1="6.34787" x2="18.4163" y2="8.75464" gradientUnits="userSpaceOnUse">
<stop stop-color="#00A9EE"/>
<stop offset="1" stop-color="#00378A"/>
</linearGradient>
<linearGradient id="paint7_linear_4_179" x1="42.2804" y1="6.34787" x2="41.6339" y2="9.9075" gradientUnits="userSpaceOnUse">
<stop stop-color="#00A9EE"/>
<stop offset="1" stop-color="#00378A"/>
</linearGradient>
<clipPath id="clip0_4_179">
<rect width="50" height="50" fill="white"/>
</clipPath>
</defs>
</svg>
