<svg width="56" height="56" viewBox="0 0 56 56" fill="none" xmlns="http://www.w3.org/2000/svg">
<rect x="0.5" y="0.5" width="55" height="55" rx="27.5" fill="#F2F2F2"/>
<rect x="0.5" y="0.5" width="55" height="55" rx="27.5" stroke="url(#paint0_linear_1381_7787)"/>
<g clip-path="url(#clip0_1381_7787)">
<path d="M15.4012 35.8008H11.8017C10.8082 35.8018 10.003 36.607 10.002 37.6005V45.3994C10.002 45.7308 10.2705 45.9993 10.6018 45.9993H16.601C16.9323 45.9993 17.2009 45.7308 17.2009 45.3994V37.6005C17.1998 36.607 16.3947 35.8019 15.4012 35.8008ZM16.0011 44.7996H11.2017V37.6005C11.2022 37.2694 11.4705 37.0011 11.8016 37.0006H15.4011C15.7323 37.0011 16.0006 37.2694 16.001 37.6005L16.0011 44.7996Z" fill="url(#paint1_linear_1381_7787)"/>
<path d="M25.0008 27.4023H21.4013C20.4078 27.4034 19.6026 28.2086 19.6016 29.2021V45.3999C19.6016 45.7312 19.8701 45.9998 20.2015 45.9998H26.2006C26.532 45.9998 26.8005 45.7312 26.8005 45.3999V29.2021C26.7995 28.2085 25.9943 27.4034 25.0008 27.4023ZM25.6007 44.7999H20.8014V29.2021C20.8018 28.871 21.0701 28.6026 21.4012 28.6022H25.0008C25.3319 28.6026 25.6002 28.871 25.6006 29.2021L25.6007 44.7999Z" fill="url(#paint2_linear_1381_7787)"/>
<path d="M34.5985 31.002H30.999C30.0055 31.003 29.2003 31.8082 29.1992 32.8017V45.4C29.1992 45.7313 29.4678 45.9999 29.7991 45.9999H35.7983C36.1296 45.9999 36.3982 45.7313 36.3982 45.4V32.8017C36.3972 31.8081 35.592 31.003 34.5985 31.002ZM35.1984 44.8H30.3991V32.8017C30.3995 32.4706 30.6678 32.2022 30.999 32.2018H34.5985C34.9296 32.2022 35.198 32.4706 35.1984 32.8017L35.1984 44.8Z" fill="url(#paint3_linear_1381_7787)"/>
<path d="M44.1981 26.2031H40.5986C39.6051 26.2042 38.7999 27.0094 38.7988 28.0029V45.4005C38.7988 45.7319 39.0674 46.0004 39.3987 46.0004H45.3979C45.7292 46.0004 45.9978 45.7319 45.9978 45.4005V28.0029C45.9967 27.0094 45.1916 26.2042 44.1981 26.2031ZM44.798 44.8006H39.9986V28.0029C39.999 27.6718 40.2674 27.4034 40.5985 27.403H44.198C44.5291 27.4034 44.7975 27.6718 44.7979 28.0029V44.8006H44.798Z" fill="url(#paint4_linear_1381_7787)"/>
<path d="M39.7106 17.1913C40.8096 18.4283 42.6108 18.7561 44.0752 17.9854C45.5395 17.2148 46.2892 15.5445 45.8918 13.9382C45.4944 12.3318 44.0523 11.2039 42.3976 11.2049C41.1963 11.2039 40.0738 11.8028 39.4057 12.8012C38.7376 13.7995 38.612 15.0655 39.071 16.1757L35.486 18.4166C34.841 17.6854 33.9257 17.2487 32.9515 17.2072C31.9773 17.1657 31.0283 17.5232 30.3235 18.197L26.3969 15.2521C27.2271 13.6464 26.7375 11.6741 25.2528 10.6431C23.7682 9.612 21.7491 9.84204 20.5345 11.1807C19.3198 12.5193 19.2865 14.5512 20.4566 15.9289L15.427 21.9059C13.8142 20.957 11.7433 21.4021 10.6628 22.9298C9.58232 24.4576 9.85257 26.5584 11.2846 27.7629C12.7167 28.9674 14.8328 28.8738 16.1528 27.5475C17.4729 26.2213 17.5566 24.1047 16.3453 22.6784L21.3749 16.7013C22.7559 17.5228 24.5153 17.3222 25.6758 16.2108L29.6024 19.1558C28.8382 20.636 29.1899 22.4473 30.4524 23.534C31.715 24.6208 33.5585 24.6988 34.9084 23.7227C36.2584 22.7466 36.762 20.9716 36.1257 19.4321L39.7106 17.1913ZM42.3976 12.4047C43.7229 12.4047 44.7972 13.4791 44.7972 14.8044C44.7957 16.129 43.7222 17.2025 42.3976 17.204C41.0723 17.204 39.998 16.1296 39.998 14.8044C39.998 13.4791 41.0723 12.4047 42.3976 12.4047ZM13.6015 27.4027C12.2763 27.4027 11.2019 26.3283 11.2019 25.0031C11.2019 23.6778 12.2763 22.6034 13.6015 22.6034C14.9268 22.6034 16.0012 23.6778 16.0012 25.0031C15.9996 26.3277 14.9262 27.4012 13.6015 27.4027ZM23.2002 16.0042C21.8749 16.0042 20.8006 14.9299 20.8006 13.6046C20.8006 12.2793 21.8749 11.2049 23.2002 11.2049C24.5255 11.2049 25.5999 12.2793 25.5999 13.6046C25.5984 14.9292 24.5248 16.0027 23.2002 16.0042ZM32.7989 23.2032C31.4736 23.2032 30.3992 22.1289 30.3992 20.8036C30.3992 19.4783 31.4736 18.4039 32.7989 18.4039C34.1241 18.4039 35.1985 19.4783 35.1985 20.8036C35.197 22.1282 34.1236 23.2018 32.7989 23.2032Z" fill="url(#paint5_linear_1381_7787)"/>
</g>
<defs>
<linearGradient id="paint0_linear_1381_7787" x1="47.5774" y1="7.47082" x2="14.1553" y2="53.4754" gradientUnits="userSpaceOnUse">
<stop stop-color="#00A9EE"/>
<stop offset="1" stop-color="#00378A"/>
</linearGradient>
<linearGradient id="paint1_linear_1381_7787" x1="16.1181" y1="37.1613" x2="9.7207" y2="43.3772" gradientUnits="userSpaceOnUse">
<stop stop-color="#00A9EE"/>
<stop offset="1" stop-color="#00378A"/>
</linearGradient>
<linearGradient id="paint2_linear_1381_7787" x1="25.7178" y1="29.8834" x2="16.0309" y2="35.0448" gradientUnits="userSpaceOnUse">
<stop stop-color="#00A9EE"/>
<stop offset="1" stop-color="#00378A"/>
</linearGradient>
<linearGradient id="paint3_linear_1381_7787" x1="35.3154" y1="33.0028" x2="26.6577" y2="38.7229" gradientUnits="userSpaceOnUse">
<stop stop-color="#00A9EE"/>
<stop offset="1" stop-color="#00378A"/>
</linearGradient>
<linearGradient id="paint4_linear_1381_7787" x1="44.915" y1="28.8442" x2="34.9697" y2="33.8222" gradientUnits="userSpaceOnUse">
<stop stop-color="#00A9EE"/>
<stop offset="1" stop-color="#00378A"/>
</linearGradient>
<linearGradient id="paint5_linear_1381_7787" x1="40.5836" y1="12.4824" x2="32.8967" y2="32.9502" gradientUnits="userSpaceOnUse">
<stop stop-color="#00A9EE"/>
<stop offset="1" stop-color="#00378A"/>
</linearGradient>
<clipPath id="clip0_1381_7787">
<rect width="36" height="36" fill="white" transform="translate(10 10)"/>
</clipPath>
</defs>
</svg>
