<svg width="56" height="56" viewBox="0 0 56 56" fill="none" xmlns="http://www.w3.org/2000/svg">
<rect x="0.5" y="0.5" width="55" height="55" rx="27.5" fill="#F2F2F2"/>
<rect x="0.5" y="0.5" width="55" height="55" rx="27.5" stroke="url(#paint0_linear_1381_7787)"/>
<g clip-path="url(#clip0_1381_7787)">
<path d="M18.9014 33.6348H16.3018C15.5842 33.6355 15.0027 34.217 15.002 34.9346V40.5671C15.002 40.8064 15.1959 41.0004 15.4352 41.0004H19.7679C20.0072 41.0004 20.2012 40.8064 20.2012 40.5671V34.9346C20.2004 34.217 19.619 33.6356 18.9014 33.6348ZM19.3347 40.1339H15.8685V34.9346C15.8688 34.6954 16.0626 34.5016 16.3017 34.5013H18.9014C19.1405 34.5016 19.3343 34.6954 19.3346 34.9346L19.3347 40.1339Z" fill="url(#paint1_linear_1381_7787)"/>
<path d="M25.8331 27.5684H23.2334C22.5159 27.5691 21.9344 28.1506 21.9336 28.8682V40.5666C21.9336 40.8059 22.1276 40.9998 22.3669 40.9998H26.6996C26.9389 40.9998 27.1328 40.8059 27.1328 40.5666V28.8682C27.1321 28.1506 26.5506 27.5691 25.8331 27.5684ZM26.2663 40.1333H22.8001V28.8682C22.8004 28.629 22.9942 28.4352 23.2334 28.4349H25.833C26.0722 28.4352 26.266 28.629 26.2663 28.8682L26.2663 40.1333Z" fill="url(#paint2_linear_1381_7787)"/>
<path d="M32.7647 30.168H30.1651C29.4475 30.1687 28.866 30.7502 28.8652 31.4678V40.5665C28.8652 40.8058 29.0592 40.9998 29.2985 40.9998H33.6312C33.8705 40.9998 34.0645 40.8058 34.0645 40.5665V31.4678C34.0638 30.7502 33.4822 30.1687 32.7647 30.168ZM33.198 40.1332H29.7318V31.4678C29.7321 31.2286 29.9259 31.0348 30.1651 31.0345H32.7647C33.0038 31.0348 33.1977 31.2286 33.198 31.4678L33.198 40.1332Z" fill="url(#paint3_linear_1381_7787)"/>
<path d="M39.6983 26.7012H37.0987C36.3811 26.7019 35.7996 27.2835 35.7988 28.001V40.566C35.7988 40.8053 35.9928 40.9992 36.2321 40.9992H40.5648C40.8041 40.9992 40.9981 40.8053 40.9981 40.566V28.001C40.9973 27.2835 40.4158 26.7019 39.6983 26.7012ZM40.1316 40.1326H36.6653V28.001C36.6656 27.7618 36.8595 27.568 37.0986 27.5677H39.6982C39.9374 27.568 40.1312 27.7618 40.1315 28.001V40.1326H40.1316Z" fill="url(#paint4_linear_1381_7787)"/>
<path d="M36.4582 20.1937C37.2519 21.0871 38.5528 21.3238 39.6104 20.7673C40.668 20.2107 41.2094 19.0044 40.9224 17.8442C40.6354 16.6841 39.5939 15.8695 38.3988 15.8702C37.5312 15.8695 36.7205 16.302 36.238 17.0231C35.7555 17.7441 35.6648 18.6584 35.9963 19.4602L33.4071 21.0787C32.9412 20.5505 32.2802 20.2351 31.5766 20.2052C30.873 20.1752 30.1876 20.4334 29.6786 20.92L26.8428 18.7931C27.4423 17.6335 27.0887 16.2091 26.0165 15.4644C24.9442 14.7198 23.486 14.8859 22.6088 15.8527C21.7315 16.8195 21.7075 18.287 22.5525 19.282L18.92 23.5987C17.7552 22.9134 16.2596 23.2348 15.4792 24.3382C14.6989 25.4416 14.8941 26.9589 15.9283 27.8288C16.9626 28.6987 18.4909 28.6311 19.4443 27.6732C20.3976 26.7154 20.4581 25.1868 19.5833 24.1566L23.2158 19.8399C24.2131 20.4332 25.4838 20.2882 26.322 19.4856L29.1578 21.6125C28.6059 22.6815 28.8599 23.9897 29.7718 24.7746C30.6836 25.5594 32.015 25.6158 32.99 24.9108C33.9649 24.2059 34.3286 22.9239 33.8691 21.812L36.4582 20.1937ZM38.3988 16.7367C39.356 16.7367 40.1319 17.5127 40.1319 18.4698C40.1308 19.4265 39.3555 20.2018 38.3988 20.2029C37.4417 20.2029 36.6657 19.427 36.6657 18.4698C36.6657 17.5127 37.4416 16.7367 38.3988 16.7367ZM17.6017 27.5686C16.6445 27.5686 15.8686 26.7927 15.8686 25.8355C15.8686 24.8784 16.6445 24.1025 17.6017 24.1025C18.5588 24.1025 19.3347 24.8784 19.3347 25.8355C19.3336 26.7922 18.5583 27.5675 17.6017 27.5686ZM24.534 19.3364C23.5769 19.3364 22.8009 18.5605 22.8009 17.6033C22.8009 16.6462 23.5769 15.8702 24.534 15.8702C25.4912 15.8702 26.2671 16.6462 26.2671 17.6033C26.266 18.56 25.4907 19.3353 24.534 19.3364ZM31.4664 24.5357C30.5092 24.5357 29.7333 23.7597 29.7333 22.8026C29.7333 21.8454 30.5092 21.0695 31.4664 21.0695C32.4235 21.0695 33.1995 21.8454 33.1995 22.8026C33.1984 23.7593 32.4231 24.5346 31.4664 24.5357Z" fill="url(#paint5_linear_1381_7787)"/>
</g>
<defs>
<linearGradient id="paint0_linear_1381_7787" x1="47.5774" y1="7.47082" x2="14.1553" y2="53.4754" gradientUnits="userSpaceOnUse">
<stop stop-color="#00A9EE"/>
<stop offset="1" stop-color="#00378A"/>
</linearGradient>
<linearGradient id="paint1_linear_1381_7787" x1="19.4192" y1="34.6174" x2="14.7988" y2="39.1067" gradientUnits="userSpaceOnUse">
<stop stop-color="#00A9EE"/>
<stop offset="1" stop-color="#00378A"/>
</linearGradient>
<linearGradient id="paint2_linear_1381_7787" x1="26.3508" y1="29.3602" x2="19.3548" y2="33.0879" gradientUnits="userSpaceOnUse">
<stop stop-color="#00A9EE"/>
<stop offset="1" stop-color="#00378A"/>
</linearGradient>
<linearGradient id="paint3_linear_1381_7787" x1="33.2825" y1="31.613" x2="27.0297" y2="35.7442" gradientUnits="userSpaceOnUse">
<stop stop-color="#00A9EE"/>
<stop offset="1" stop-color="#00378A"/>
</linearGradient>
<linearGradient id="paint4_linear_1381_7787" x1="40.2161" y1="28.6086" x2="33.0333" y2="32.2038" gradientUnits="userSpaceOnUse">
<stop stop-color="#00A9EE"/>
<stop offset="1" stop-color="#00378A"/>
</linearGradient>
<linearGradient id="paint5_linear_1381_7787" x1="37.0887" y1="16.7929" x2="31.537" y2="31.5751" gradientUnits="userSpaceOnUse">
<stop stop-color="#00A9EE"/>
<stop offset="1" stop-color="#00378A"/>
</linearGradient>
<clipPath id="clip0_1381_7787">
<rect width="26" height="26" fill="white" transform="translate(15 15)"/>
</clipPath>
</defs>
</svg>
