<svg width="50" height="50" viewBox="0 0 50 50" fill="none" xmlns="http://www.w3.org/2000/svg">
<g clip-path="url(#clip0_4_196)">
<path d="M7.50141 35.8353H2.5021C1.12221 35.8367 0.00390605 36.955 0.00244141 38.3349V49.1667C0.00244141 49.6269 0.375437 49.9999 0.835628 49.9999H9.16779C9.62798 49.9999 10.001 49.6269 10.001 49.1667V38.3349C9.99951 36.955 8.8813 35.8368 7.50141 35.8353ZM8.3346 48.3336H1.66881V38.3349C1.6694 37.875 2.0421 37.5023 2.502 37.5017H7.50132C7.96121 37.5023 8.33392 37.875 8.3345 38.3349L8.3346 48.3336Z" fill="url(#paint0_linear_4_196)"/>
<path d="M20.8334 24.1702H15.8341C14.4542 24.1717 13.3359 25.29 13.3345 26.6699V49.1668C13.3345 49.627 13.7075 50 14.1677 50H22.4998C22.96 50 23.333 49.627 23.333 49.1668V26.6699C23.3315 25.2899 22.2133 24.1717 20.8334 24.1702ZM21.6666 48.3335H15.0008V26.6699C15.0014 26.21 15.3741 25.8373 15.834 25.8367H20.8333C21.2932 25.8373 21.6659 26.21 21.6665 26.6699L21.6666 48.3335Z" fill="url(#paint1_linear_4_196)"/>
<path d="M34.165 29.1696H29.1657C27.7858 29.171 26.6675 30.2893 26.666 31.6692V49.1668C26.666 49.627 27.039 50 27.4992 50H35.8314C36.2916 50 36.6645 49.627 36.6645 49.1668V31.6692C36.6632 30.2892 35.5449 29.171 34.165 29.1696ZM34.9983 48.3335H28.3325V31.6692C28.3331 31.2093 28.7058 30.8366 29.1657 30.836H34.165C34.6249 30.8366 34.9976 31.2093 34.9982 31.6692L34.9983 48.3335Z" fill="url(#paint2_linear_4_196)"/>
<path d="M47.4965 22.5038H42.4972C41.1173 22.5052 39.999 23.6236 39.9976 25.0034V49.1668C39.9976 49.627 40.3706 50 40.8307 50H49.1629C49.6231 50 49.9961 49.627 49.9961 49.1668V25.0034C49.9946 23.6236 48.8764 22.5052 47.4965 22.5038ZM48.3297 48.3335H41.6639V25.0034C41.6645 24.5435 42.0372 24.1708 42.4971 24.1703H47.4964C47.9563 24.1708 48.329 24.5435 48.3296 25.0034V48.3335H48.3297Z" fill="url(#paint3_linear_4_196)"/>
<path d="M41.2646 9.98765C42.7911 11.7058 45.2928 12.161 47.3266 11.0906C49.3604 10.0203 50.4017 7.70047 49.8497 5.46943C49.2977 3.23838 47.2949 1.6718 44.9966 1.67317C43.3281 1.6719 41.7692 2.50362 40.8413 3.89025C39.9133 5.27687 39.7389 7.03523 40.3764 8.57711L35.3972 11.6895C34.5013 10.6739 33.2301 10.0673 31.8771 10.0097C30.524 9.95211 29.2059 10.4486 28.2271 11.3844L22.7735 7.29427C23.9265 5.06421 23.2465 2.32493 21.1845 0.892904C19.1224 -0.539127 16.3181 -0.21964 14.6312 1.63958C12.9442 3.4988 12.8979 6.32087 14.523 8.23438L7.53741 16.5358C5.29748 15.2178 2.42122 15.836 0.920541 17.9579C-0.580133 20.0797 -0.204793 22.9976 1.78419 24.6705C3.77318 26.3434 6.71213 26.2134 8.54557 24.3713C10.379 22.5293 10.4952 19.5897 8.81292 17.6086L15.7985 9.30718C17.7165 10.4481 20.1601 10.1695 21.772 8.62593L27.2255 12.7161C26.1642 14.772 26.6526 17.2876 28.4061 18.797C30.1597 20.3064 32.7201 20.4147 34.595 19.0591C36.47 17.7034 37.1694 15.2381 36.2856 13.0998L41.2646 9.98765ZM44.9966 3.33964C46.8373 3.33964 48.3295 4.83182 48.3295 6.67248C48.3273 8.51227 46.8364 10.0033 44.9966 10.0053C43.156 10.0053 41.6638 8.51315 41.6638 6.67248C41.6638 4.83182 43.1559 3.33964 44.9966 3.33964ZM5.00211 24.1702C3.16145 24.1702 1.66927 22.678 1.66927 20.8373C1.66927 18.9967 3.16145 17.5045 5.00211 17.5045C6.84278 17.5045 8.33496 18.9967 8.33496 20.8373C8.33281 22.6771 6.8419 24.168 5.00211 24.1702ZM18.3336 8.33895C16.4929 8.33895 15.0007 6.84678 15.0007 5.00611C15.0007 3.16544 16.4929 1.67327 18.3336 1.67327C20.1743 1.67327 21.6664 3.16544 21.6664 5.00611C21.6644 6.8459 20.1734 8.3369 18.3336 8.33895ZM31.6651 18.3376C29.8244 18.3376 28.3322 16.8454 28.3322 15.0047C28.3322 13.1641 29.8244 11.6719 31.6651 11.6719C33.5057 11.6719 34.9979 13.1641 34.9979 15.0047C34.9959 16.8445 33.505 18.3355 31.6651 18.3376Z" fill="url(#paint4_linear_4_196)"/>
</g>
<defs>
<linearGradient id="paint0_linear_4_196" x1="8.49715" y1="37.7249" x2="-0.388194" y2="46.3581" gradientUnits="userSpaceOnUse">
<stop stop-color="#00A9EE"/>
<stop offset="1" stop-color="#00378A"/>
</linearGradient>
<linearGradient id="paint1_linear_4_196" x1="21.8292" y1="27.6161" x2="8.37522" y2="34.7847" gradientUnits="userSpaceOnUse">
<stop stop-color="#00A9EE"/>
<stop offset="1" stop-color="#00378A"/>
</linearGradient>
<linearGradient id="paint2_linear_4_196" x1="35.1607" y1="31.9485" x2="23.1362" y2="39.8931" gradientUnits="userSpaceOnUse">
<stop stop-color="#00A9EE"/>
<stop offset="1" stop-color="#00378A"/>
</linearGradient>
<linearGradient id="paint3_linear_4_196" x1="48.4923" y1="26.172" x2="34.6793" y2="33.0858" gradientUnits="userSpaceOnUse">
<stop stop-color="#00A9EE"/>
<stop offset="1" stop-color="#00378A"/>
</linearGradient>
<linearGradient id="paint4_linear_4_196" x1="42.4771" y1="3.44757" x2="31.8009" y2="31.875" gradientUnits="userSpaceOnUse">
<stop stop-color="#00A9EE"/>
<stop offset="1" stop-color="#00378A"/>
</linearGradient>
<clipPath id="clip0_4_196">
<rect width="50" height="50" fill="white"/>
</clipPath>
</defs>
</svg>
